<svg width="300.000000" height="289.000000" viewBox="0 0 300 289" fill="none" xmlns="http://www.w3.org/2000/svg" xmlns:xlink="http://www.w3.org/1999/xlink">
	<desc>
			Created with Pixso.
	</desc>
	<defs/>
	<g opacity="0.080000" style="mix-blend-mode:normal">
		<path id="Path" d="M261.55 268.59C250.23 266.64 248.87 259.35 247.16 250.11C245.23 239.8 242.85 226.96 225.51 216.73C216.82 211.62 208.5 208.41 200.05 206.93C192.5 205.61 184.99 205.69 177.14 207.19C162.55 209.99 148.77 217.46 135.43 224.67C122.94 231.43 110.03 238.44 96.13 241.89C88.66 243.76 81.54 244.45 74.35 244.04C66.29 243.57 58.35 241.73 50.11 238.38C35.72 232.53 21.41 230.5 7.59 232.32C5.04 232.67 2.5 233.14 0 233.75L0 234.38C2.55 233.77 5.1 233.28 7.7 232.93C21.41 231.11 35.59 233.14 49.87 238.92C60.02 243.04 69.42 244.75 78.28 244.75C99.67 244.75 117.93 234.86 135.75 225.22C149.65 217.69 162.76 210.58 177.27 207.8C185.03 206.3 192.45 206.22 199.92 207.53C208.31 209 216.57 212.18 225.17 217.26C232.78 221.75 242.27 227.33 246.54 250.21C247.42 254.98 248.19 259.1 250.23 262.41C252.48 266.09 256.06 268.24 261.45 269.17C277.39 271.94 286.87 276.3 291.26 282.92C292.32 284.48 293.09 286.19 293.6 288L294.27 288C293.73 286.07 292.94 284.28 291.8 282.59C287.3 275.83 277.69 271.39 261.55 268.59Z" fill="#848484" fill-opacity="1.000000" fill-rule="nonzero"/>
		<path id="Path" d="M249.1 275.32C235.61 273.42 234.34 269.61 231.6 261.29C229.19 254.05 225.57 243.06 211.39 227.14C192.32 205.7 172.09 219.11 148.66 234.63C124.92 250.37 97.99 268.19 65.13 255.36C52.53 250.43 39.83 248.01 27.35 248.11C18.06 248.19 8.85 249.69 0 252.55L0 253.2C8.85 250.31 18.04 248.82 27.35 248.74C39.75 248.62 52.36 251.06 64.87 255.94C79.67 261.74 94.62 261.84 110.54 256.29C124.46 251.42 136.95 243.15 149.03 235.15C160.61 227.48 171.55 220.24 181.79 217.65C193.09 214.79 202.34 217.94 210.9 227.56C224.99 243.41 228.6 254.31 230.98 261.51C233.72 269.83 235.12 274.01 249.02 275.97C257.15 277.12 262.23 279.94 264.14 284.36C264.61 285.47 264.89 286.68 265 288L265.64 288C265.56 286.6 265.26 285.31 264.74 284.14C262.73 279.46 257.47 276.51 249.1 275.32Z" fill="#848484" fill-opacity="1.000000" fill-rule="nonzero"/>
		<path id="Path" d="M182.56 248.72C176.61 244.96 168.62 245.08 158.84 249.15C151.07 252.36 142.14 258.05 132.29 266.01C122.23 274.18 113.24 283.12 107.63 289L108.48 289C114.09 283.12 122.87 274.43 132.7 266.46C142.5 258.51 151.37 252.87 159.07 249.67C168.64 245.71 176.42 245.55 182.18 249.21C195.55 257.68 202.66 271.99 208.94 284.61C209.69 286.09 210.39 287.55 211.12 288.98L211.83 288.98C211.06 287.47 210.28 285.93 209.52 284.34C203.24 271.66 196.09 257.27 182.56 248.72Z" fill="#848484" fill-opacity="1.000000" fill-rule="nonzero"/>
		<path id="Path" d="M165.49 269.36C162.75 267.5 159.2 267.54 154.96 269.48C151.63 271.02 147.85 273.73 143.73 277.55C139.81 281.2 136.28 285.19 133.96 288L134.79 288C141.37 280.13 156.46 263.98 165.11 269.85C170.7 273.65 173.97 281.18 176.8 288L177.48 288C174.61 281.06 171.31 273.3 165.49 269.36Z" fill="#848484" fill-opacity="1.000000" fill-rule="nonzero"/>
		<path id="Path" d="M59.31 269.1C53.82 267.79 48.14 266.44 43.03 264.83C30.37 260.79 15.69 264.19 5.61 267.75C3.63 268.45 1.75 269.19 0 269.92L0 270.58C1.81 269.82 3.78 269.05 5.85 268.31C15.82 264.79 30.34 261.42 42.82 265.4C47.92 267.04 53.63 268.39 59.14 269.7C71.52 272.65 83.23 275.44 84.04 280.49C84.38 282.62 82.8 285.11 79.25 288L80.19 288C83.55 285.11 85.02 282.6 84.68 280.39C83.8 274.94 72.46 272.25 59.31 269.1Z" fill="#848484" fill-opacity="1.000000" fill-rule="nonzero"/>
		<path id="Path" d="M51.89 277.49C47.6 276.79 42.39 276.83 37.58 277.62C28.69 279.06 11.29 283.67 0 286.78L0 287.42C11.29 284.31 28.8 279.67 37.71 278.21C42.45 277.45 47.58 277.39 51.8 278.09C57.9 279.1 60.04 281.22 60.78 282.85C61.45 284.31 61.28 286.04 60.28 288L61.02 288C61.97 285.98 62.08 284.16 61.36 282.6C59.91 279.43 55.41 278.07 51.89 277.49Z" fill="#848484" fill-opacity="1.000000" fill-rule="nonzero"/>
		<path id="Path" d="M27.44 165.04C37.1 171.25 43.41 180.14 48.95 188C55.24 196.89 60.69 204.59 69.2 205.83C69.99 205.95 70.8 206 71.61 206C78.18 206 85.98 202.38 95.88 194.77C103.3 189.06 109.48 183.88 114.93 179.29C126.44 169.59 134.75 162.59 143.95 160.33C153.34 158 163.64 160.45 179.51 168.76C192.46 175.55 207.93 180.22 221.89 181.57C228.39 182.2 234.29 182.08 238.97 181.18C243.91 180.24 247.37 178.55 249.23 176.12C251.78 172.8 252.4 166.61 240.83 156.02C227 143.35 211.26 141.82 194.6 140.21C183.57 139.15 172.15 138.03 160.63 133.6C147.58 128.6 136.27 119.91 126.03 107.07C118.46 97.58 109.63 93.1 100.46 94.1C94.21 94.77 88.08 97.91 82.22 103.4C76.34 108.95 71.04 116.6 66.5 126.15C63.13 133.23 59.41 136.86 55.07 137.23C45.68 138.03 34.82 122.97 24.34 108.4C19.1 101.11 13.69 93.61 8.54 88.22C5.86 85.42 3.43 83.36 1.14 82L1.14 82.75C8.34 87.28 16.17 98.14 23.8 108.75C29.06 116.05 34.52 123.62 39.75 129.13C45.36 135.01 50.15 137.88 54.36 137.88C54.62 137.88 54.87 137.86 55.13 137.84C59.7 137.46 63.62 133.72 67.08 126.42C71.59 116.93 76.83 109.34 82.67 103.85C88.42 98.44 94.43 95.36 100.52 94.71C109.44 93.75 118.1 98.16 125.52 107.46C135.82 120.4 147.24 129.13 160.37 134.17C171.98 138.64 183.44 139.74 194.52 140.82C211.07 142.43 226.7 143.94 240.38 156.47C251.63 166.78 251.12 172.65 248.72 175.78C245.21 180.33 235.21 182.26 221.95 180.98C208.07 179.63 192.7 174.98 179.81 168.23C163.79 159.84 153.36 157.39 143.78 159.76C134.43 162.06 126.07 169.1 114.51 178.86C109.05 183.45 102.9 188.63 95.48 194.32C84.49 202.77 76.17 206.24 69.28 205.24C61.05 204.06 55.68 196.47 49.46 187.67C43.88 179.78 37.55 170.84 27.78 164.55C19.68 159.35 11.96 156.74 4.75 156.74C3.53 156.74 2.34 156.82 1.14 156.96L1.14 157.57C9.24 156.53 18.07 159.04 27.44 165.04Z" fill="#848484" fill-opacity="1.000000" fill-rule="nonzero"/>
		<path id="Path" d="M12.05 224.73C21.99 224.88 33.12 226.79 42.94 228.45C57.01 230.85 68.1 232.74 69.47 228.39C71.53 221.86 64.83 216.46 53.7 207.52C45.73 201.12 35.79 193.15 25.15 181.69C17.16 173.09 9.19 169.19 1.5 170.13C1.03 170.2 0.53 170.28 0 170.38L0 171.02C0.51 170.91 1.05 170.81 1.58 170.75C9.06 169.85 16.82 173.67 24.68 182.1C35.36 193.6 45.3 201.59 53.29 208.02C64.21 216.79 70.8 222.08 68.87 228.22C67.67 232.04 56.26 230.09 43.07 227.85C28.83 225.43 12.11 222.58 0.02 225.04L0.02 225.68C3.41 224.98 7.43 224.65 12.05 224.73Z" fill="#848484" fill-opacity="1.000000" fill-rule="nonzero"/>
		<path id="Path" d="M40.84 222C46.49 222 49.66 221.02 50.27 219.04C51.61 214.74 40.39 206.98 33.55 202.74C23.89 196.73 12.39 191.07 6.2 189.26C4.14 188.66 2.06 188.25 0.02 188L0.02 188.62C1.99 188.87 4.01 189.28 6.01 189.87C12.15 191.66 23.59 197.27 33.18 203.26C44.36 210.23 50.5 216.05 49.61 218.86C48.75 221.6 41.02 222.1 27.84 220.27C17.16 218.79 6.03 216.24 0 214.61L0 215.26C6.07 216.9 17.14 219.42 27.74 220.89C33.05 221.62 37.39 222 40.84 222Z" fill="#848484" fill-opacity="1.000000" fill-rule="nonzero"/>
		<path id="Path" d="M12.8 210C15.39 210 16.83 209.52 17.11 208.56C17.72 206.64 13.4 203.44 9.67 201.11C6.45 199.08 2.78 197.16 0 196L0 196.68C2.72 197.85 6.23 199.71 9.32 201.65C14.11 204.65 16.85 207.24 16.49 208.39C15.91 210.25 7.25 209.2 0 207.64L0 208.26C2.17 208.72 4.61 209.18 6.99 209.52C9.34 209.83 11.26 210 12.8 210Z" fill="#848484" fill-opacity="1.000000" fill-rule="nonzero"/>
		<path id="Shape" d="M72.2383 193.796C72.8145 193.939 73.4102 194 74.0293 194C80.3633 194 88.1035 186.867 96.9551 178.713C102.947 173.194 109.729 166.961 116.895 162.178C125.104 156.721 132.59 154.044 139.797 153.942C149.352 153.819 157.326 153.268 162.85 152.368C168.545 151.428 171.529 150.141 171.742 148.526C172.02 146.441 167.861 144.316 159.055 142.006C145.107 138.348 138.752 132.012 130.691 124.001C125.445 118.789 119.518 112.862 110.367 106.772C107.959 105.157 105.164 104.646 102.115 105.239C92.625 107.078 80.2773 119.463 65.4141 142.047C61.2344 148.383 58.5684 155.557 57.6504 162.792C56.6484 170.824 57.5449 177.997 60.2109 183.556C62.8555 189.013 67.0137 192.549 72.2383 193.796ZM65.9688 142.374C61.8516 148.628 59.209 155.72 58.3125 162.873C57.332 170.783 58.2051 177.834 60.8281 183.291C63.3672 188.584 67.375 192.018 72.4082 193.203C72.9414 193.326 73.4961 193.387 74.0508 193.387C80.1074 193.387 87.7637 186.336 96.5059 178.283C102.498 172.745 109.301 166.491 116.531 161.688C124.848 156.17 132.461 153.431 139.797 153.329C149.33 153.206 157.264 152.654 162.744 151.755C169.803 150.59 171.018 149.18 171.125 148.444C171.424 146.114 162.68 143.56 158.904 142.579C144.787 138.859 138.369 132.482 130.266 124.409C125.039 119.218 119.133 113.332 110.027 107.262Q108.811 106.455 107.473 106.042Q106.066 105.607 104.525 105.607C103.799 105.607 103.031 105.688 102.264 105.831C92.9668 107.65 80.7461 119.933 65.9688 142.374Z" clip-rule="evenodd" fill="#848484" fill-opacity="1.000000" fill-rule="evenodd"/>
		<path id="Shape" d="M197.578 166.62C204.316 168.185 215.723 170.48 225.723 171.862C231.246 172.614 235.555 173 238.688 173C242.355 173 244.402 172.472 244.914 171.435C245.449 170.318 244.254 168.814 241.27 166.803C240.863 166.457 232.57 159.427 222.418 153.677C216.32 150.223 210.754 147.907 205.871 146.789C199.711 145.367 194.633 145.875 190.73 148.252C183.588 152.621 180.475 155.932 180.967 158.675C181.52 161.703 186.34 164.019 197.578 166.62ZM199.477 146.586C196.234 146.586 193.441 147.317 191.094 148.74C184.293 152.905 181.18 156.115 181.605 158.513C182.203 161.947 190.094 164.222 197.727 165.99C216.234 170.277 242.738 174.463 244.316 171.151C244.531 170.704 244.383 169.607 240.887 167.25L240.863 167.23C240.777 167.169 232.398 159.996 222.098 154.165C216.062 150.751 210.562 148.455 205.742 147.358C203.504 146.85 201.414 146.586 199.477 146.586Z" clip-rule="evenodd" fill="#848484" fill-opacity="1.000000" fill-rule="evenodd"/>
		<path id="Path" d="M300 161.1C298.47 159.58 296.73 158.03 294.75 156.47C287.23 150.56 277.69 145.69 266.39 141.98C252.27 137.36 235.36 134.53 216.13 133.59C205.13 133.06 184.03 131.2 166.22 124.67C147.46 117.81 137.06 107.68 135.34 94.57C133.34 79.38 135.3 69.97 141.51 64.92C148.3 59.39 160.59 59.14 179.07 64.22C191.89 67.74 202.27 72.57 210.61 76.46C218.84 80.3 225.35 83.33 231.15 83.86C237.44 84.44 242.37 82 247.09 75.97C250.1 72.12 252.49 68.48 254.59 65.26C258.83 58.78 261.9 54.09 266.91 52.35C272.19 50.51 279.35 52.06 290.86 57.55C294.15 59.1 297.18 60.84 300 62.64L300 61.91C297.26 60.17 294.32 58.51 291.16 57C279.48 51.43 272.17 49.87 266.69 51.76C261.47 53.58 258.37 58.33 254.05 64.92C251.97 68.11 249.59 71.73 246.6 75.58C236.89 88 227.11 83.43 210.91 75.88C202.55 71.98 192.13 67.13 179.26 63.61C160.54 58.49 148.06 58.76 141.1 64.42C134.72 69.62 132.7 79.22 134.72 94.63C136.48 107.99 147.01 118.28 166 125.24C183.9 131.79 205.09 133.65 216.11 134.21C235.28 135.13 252.1 137.95 266.15 142.55C277.37 146.24 286.84 151.07 294.3 156.92C296.49 158.64 298.38 160.36 300 162L300 161.1Z" fill="#848484" fill-opacity="1.000000" fill-rule="nonzero"/>
		<path id="Path" d="M300 148.2C295.47 144.94 290.03 141.66 283.87 138.57C266.35 129.76 245.7 123.64 225.75 121.35C205.55 119.01 190.81 116.45 179.37 113.25C164.76 109.2 155.54 104.14 151.19 97.83C148.24 93.55 147.6 88.61 149.25 83.13C150.48 79.07 152.75 76.39 156.18 74.93C167.81 69.98 190.1 80.36 209.77 89.52C216.96 92.87 223.77 96.03 229.55 98.2C239.3 101.87 245.3 102.69 249.6 100.9C253.77 99.18 256.16 95.21 259.44 89.7C261.43 86.38 263.66 82.63 266.82 78.5C270.19 74.07 274.46 71.76 279.51 71.61C286.43 71.43 293.92 75.34 300 79.64L300 78.89C290.55 72.27 283.74 70.9 279.51 71C274.27 71.14 269.83 73.54 266.33 78.13C263.15 82.29 260.91 86.07 258.91 89.39C252.46 100.15 249.52 105.06 229.78 97.63C224.02 95.46 217.24 92.3 210.05 88.96C190.25 79.75 167.81 69.3 155.92 74.38C152.34 75.9 149.89 78.8 148.63 82.98C146.92 88.64 147.58 93.76 150.63 98.2C155.09 104.61 164.42 109.75 179.2 113.85C190.68 117.04 205.46 119.6 225.69 121.94C245.55 124.23 266.12 130.34 283.57 139.1C289.82 142.26 295.41 145.64 300 149L300 148.2Z" fill="#848484" fill-opacity="1.000000" fill-rule="nonzero"/>
		<path id="Path" d="M299.98 139.16C287.8 129.01 271.29 124.95 258.35 121.79C245.79 118.72 236.74 116.5 237.72 110.52C238 108.78 240.52 108.9 244.94 109.27C249.04 109.6 254.12 110.03 258.93 108.47C264.61 106.62 268.51 102.46 270.87 95.74C272.51 91.03 275.14 88.32 278.64 87.75C285.05 86.68 293.46 92.67 300 98.61L300 97.75C299.82 97.61 299.68 97.44 299.5 97.3C290.88 89.67 283.83 86.25 278.53 87.13C274.77 87.75 272 90.57 270.27 95.53C265.1 110.31 253.01 109.31 245 108.65C240.64 108.28 237.48 108.04 237.1 110.44C236.61 113.47 238.34 115.81 242.61 117.76C246.41 119.5 251.88 120.85 258.2 122.39C271.25 125.59 287.89 129.66 300 140L300 139.16L299.98 139.16Z" fill="#848484" fill-opacity="1.000000" fill-rule="nonzero"/>
		<path id="Path" d="M300 133.24C295.88 130.7 291.37 127.08 287.49 123.2C281.68 117.37 278.22 111.98 277.78 107.99C277.55 105.84 278.2 104.13 279.77 102.92C285.28 98.66 294.27 105.76 300 111.42L300 110.52C298.81 109.37 297.51 108.18 296.16 107.05C293 104.44 290.07 102.65 287.51 101.73C284.24 100.56 281.49 100.79 279.37 102.44C277.63 103.77 276.89 105.67 277.14 108.08C278.03 116.22 290.43 128.15 300 134L300 133.24Z" fill="#848484" fill-opacity="1.000000" fill-rule="nonzero"/>
		<path id="Shape" d="M226.078 108.931C225.949 108.85 214.164 100.819 200.559 93.3336C182.25 83.2388 169.523 78.8286 162.764 80.265C160.668 80.71 159.127 81.7215 158.207 83.2995C154.764 89.1662 158.016 95.215 167.598 100.798C176.111 105.755 189.715 110.327 203.984 113.017C209.844 114.13 216.516 115 221.5 115C225.137 115 227.898 114.535 228.754 113.341C229.5 112.208 228.625 110.731 226.078 108.931ZM220.281 114.353C226.207 114.494 227.789 113.543 228.195 112.977C228.879 111.986 227.211 110.509 225.695 109.437C225.137 109.052 183.213 80.6089 165.48 80.6089C164.539 80.6089 163.684 80.6898 162.893 80.8516C160.988 81.2562 159.598 82.1666 158.764 83.5827C157.053 86.4958 157.074 89.4494 158.85 92.3828C160.453 95.0531 163.512 97.7033 167.92 100.273C176.367 105.188 189.887 109.74 204.09 112.411C210.188 113.564 215.941 114.251 220.281 114.353Z" clip-rule="evenodd" fill="#848484" fill-opacity="1.000000" fill-rule="evenodd"/>
		<path id="Shape" d="M205.129 103.928C205.047 103.889 198.852 100.293 191.93 96.9503C182.584 92.4353 176.453 90.4612 173.686 91.1257C173.004 91.2821 172.492 91.6144 172.195 92.103C170.959 94.1553 172.322 96.3249 176.262 98.5531C180.178 100.762 186.758 103.01 193.848 104.573C195.211 104.866 200.555 106 203.703 106C204.855 106 205.707 105.863 205.98 105.472C206.426 104.864 205.559 104.238 205.191 103.972C205.168 103.956 205.148 103.941 205.129 103.928ZM193.973 104.006C201.215 105.59 205.09 105.629 205.449 105.14C205.473 105.101 205.43 104.866 204.746 104.417C204.152 104.065 182.393 91.5948 174.877 91.5948C174.473 91.5948 174.133 91.6339 173.812 91.7121C173.281 91.8294 172.939 92.0639 172.727 92.3962C171.684 94.1162 172.961 96.0121 176.559 98.0449C180.412 100.234 186.926 102.462 193.973 104.006Z" clip-rule="evenodd" fill="#848484" fill-opacity="1.000000" fill-rule="evenodd"/>
		<path id="Shape" d="M73.1426 180C74.5684 180 76.3145 179.649 78.4453 178.782C96.7578 171.312 105.148 159.983 113.283 149.026L113.943 148.138C116.393 144.836 117.775 140.936 117.926 136.871C118.074 132.785 116.988 128.823 114.73 125.397C112.432 121.889 109.6 119.805 106.299 119.186C102.295 118.443 97.6094 119.929 92.3926 123.581C74.9316 135.839 62.0898 167.268 67.7754 177.028C68.6484 178.535 70.2461 180 73.1426 180ZM92.7754 124.097C84.875 129.648 77.1035 139.904 71.9922 151.522C67.2012 162.418 65.7539 172.303 68.3301 176.719C70.0547 179.67 73.3555 180.165 78.1895 178.184C96.332 170.776 104.68 159.529 112.75 148.633L113.41 147.746C115.795 144.548 117.137 140.771 117.287 136.83C117.436 132.868 116.371 129.029 114.199 125.728C112.006 122.385 109.301 120.383 106.191 119.805C105.553 119.681 104.893 119.619 104.232 119.619C100.848 119.619 97.0137 121.126 92.7754 124.097Z" clip-rule="evenodd" fill="#848484" fill-opacity="1.000000" fill-rule="evenodd"/>
		<path id="Shape" d="M80.5977 166C81.4941 166 82.6074 165.769 83.9609 165.223C95.1387 160.684 100.4 155.768 105.227 149.318C108.262 145.263 108.436 139.968 105.707 135.808C104.33 133.707 102.605 132.468 100.619 132.111C98.1953 131.669 95.4004 132.552 92.2793 134.716C87.5625 137.993 82.9121 143.792 79.8125 150.179C76.8438 156.335 75.9258 161.756 77.4336 164.319C77.957 165.181 78.8945 166 80.5977 166ZM92.6719 135.241C88.0645 138.456 83.4805 144.149 80.4238 150.452C77.5859 156.335 76.6465 161.651 78.0215 164.025C78.9395 165.601 80.8613 165.811 83.7207 164.655C94.7676 160.18 99.9434 155.327 104.703 148.961C107.584 145.116 107.76 140.094 105.16 136.165C103.873 134.233 102.322 133.077 100.51 132.741C100.139 132.678 99.7676 132.636 99.375 132.636C97.3887 132.636 95.1602 133.518 92.6719 135.241Z" clip-rule="evenodd" fill="#848484" fill-opacity="1.000000" fill-rule="evenodd"/>
		<g opacity="0.300000" style="mix-blend-mode:normal">
			<path id="Path" d="M89.32 154C89.56 154 89.86 153.93 90.22 153.77C93.02 152.48 94.33 151.06 95.54 149.21C96.34 148.01 96.39 146.4 95.67 145.18C95.3 144.53 94.84 144.16 94.29 144.03C93.65 143.89 92.89 144.16 92.08 144.8C89.6 146.78 87.48 151.69 88.37 153.41C88.5 153.66 88.77 154 89.32 154Z" fill="#848484" fill-opacity="1.000000" fill-rule="nonzero"/>
			<path id="Path" d="M90.22 153.77C93.02 152.48 94.33 151.06 95.54 149.21C96.34 148.01 96.39 146.4 95.67 145.18C95.3 144.53 94.84 144.16 94.29 144.03C93.65 143.89 92.89 144.16 92.08 144.8C89.6 146.78 87.48 151.69 88.37 153.41C88.5 153.66 88.77 154 89.32 154C89.56 154 89.86 153.93 90.22 153.77Z" stroke="#575757" stroke-opacity="1.000000" stroke-width="5.000000"/>
		</g>
		<path id="Path" d="M299.93 270.42C293.77 270.15 287.78 269.39 282.49 268.15C275.51 266.53 269.65 264.07 265.09 260.9C259.49 257.01 255.81 251.98 254.1 245.93C251.74 237.42 247.99 229.39 243.27 222.67C237.74 214.78 230.96 208.71 223.07 204.59C208.58 196.99 190.94 196.27 170.68 202.45C146.13 209.92 127.03 217.77 113.07 223.52C95.26 230.83 85.44 234.87 83.2 230.44C83.01 230.05 82.99 229.63 83.16 229.18C84.43 225.82 94.96 221.25 107.17 215.98C116.26 212.04 126.58 207.57 134.69 202.84C144.08 197.36 149.02 192.39 149.77 187.68C150.82 181.04 153.62 176.39 157.85 174.23C162.64 171.77 169.21 172.41 177.4 176.12C192.43 182.92 229.12 191.03 251.41 191.03C259.1 191.03 265.09 190.07 267.87 187.74C269.55 186.34 270.02 184.5 269.26 182.28C266.79 174.93 269.65 167.33 275.92 164.63C283.78 161.25 292.46 166.15 299.93 174L299.93 172.97C297 169.96 294.03 167.61 291.04 165.92C285.55 162.81 280.08 162.16 275.66 164.07C269.09 166.89 266.08 174.8 268.66 182.46C269.33 184.44 268.92 186.03 267.46 187.26C262.83 191.14 247.86 191.47 226.37 188.15C207.8 185.29 187.8 180.12 177.7 175.54C169.32 171.75 162.56 171.14 157.59 173.67C153.17 175.91 150.27 180.73 149.17 187.57C147.53 197.81 125.02 207.57 106.94 215.4C94.1 220.96 83.96 225.35 82.6 228.95C82.36 229.57 82.39 230.15 82.66 230.69C83.87 233.07 86.82 233.49 92.27 232.02C97.29 230.66 104.4 227.76 113.37 224.07C127.31 218.35 146.41 210.5 170.92 203.02C191.01 196.9 208.47 197.6 222.82 205.1C230.59 209.18 237.31 215.2 242.78 222.98C247.45 229.66 251.18 237.63 253.52 246.05C255.25 252.23 259.01 257.38 264.75 261.35C269.37 264.57 275.32 267.04 282.38 268.71C287.74 269.97 293.79 270.75 300 271L300 270.42L299.93 270.42Z" fill="#848484" fill-opacity="1.000000" fill-rule="nonzero"/>
		<path id="Path" d="M299.97 257.97C289.88 260.2 281.92 259.85 275.8 256.92C266.76 252.58 262.79 243.12 259.85 233.54C256.75 223.42 247.84 215.95 240.68 209.95C235.87 205.91 232.08 202.74 231.91 200.2C231.86 199.48 232.12 198.85 232.68 198.25C234.64 196.16 240.9 197.48 248.84 199.13C255.2 200.47 263.14 202.12 271.39 202.57C275.21 202.78 277.71 202.16 279.07 200.69C281.01 198.56 280.28 195 279.5 191.23C278.41 185.97 277.28 180.54 282.52 177.55C284.27 176.55 286.21 176.36 288.28 176.94C291.78 177.94 295.77 181.26 300 186.6L300 185.56C296.54 181.3 292.51 177.51 288.48 176.36C286.23 175.71 284.12 175.93 282.2 177.02C276.57 180.23 277.8 186.13 278.88 191.35C279.64 194.98 280.35 198.4 278.6 200.3C277.39 201.61 275.04 202.16 271.44 201.96C263.22 201.51 255.33 199.85 248.99 198.52C240.55 196.76 234.45 195.47 232.23 197.82C231.56 198.54 231.24 199.34 231.3 200.22C231.47 203 235.35 206.26 240.3 210.38C247.39 216.32 256.23 223.73 259.27 233.68C262.25 243.39 266.26 252.99 275.54 257.44C279.1 259.14 283.26 260 288.07 260C291.67 260 295.64 259.52 300 258.56L300 257.97L299.97 257.97Z" fill="#848484" fill-opacity="1.000000" fill-rule="nonzero"/>
		<path id="Path" d="M300 242.1C294.94 243.36 288.77 244.08 283.76 242.24C280.08 240.9 277.4 238.3 275.82 234.55C273.63 229.35 269.8 224.53 266.71 220.65C263.67 216.83 261.06 213.53 261.87 212.05C262.39 211.12 264.25 210.77 267.57 210.96L268.68 211.02C278.62 211.6 283.63 211.88 286.1 209.72C287.3 208.67 287.87 207.02 287.94 204.4C288.05 200.79 290.04 197.78 292.91 196.89C295.05 196.23 297.47 196.75 300 198.31L300 197.55C296.74 195.65 294.21 195.84 292.71 196.31C289.59 197.28 287.4 200.52 287.3 204.4C287.23 206.83 286.72 208.34 285.67 209.26C283.4 211.27 278.19 210.96 268.73 210.4L267.61 210.34C263.95 210.13 261.96 210.58 261.29 211.76C260.28 213.6 262.75 216.71 266.18 221.04C269.24 224.9 273.05 229.68 275.19 234.8C276.84 238.72 279.65 241.42 283.5 242.84C285.78 243.67 288.26 244 290.75 244C294.02 244 297.28 243.44 299.98 242.78L299.98 242.1L300 242.1Z" fill="#848484" fill-opacity="1.000000" fill-rule="nonzero"/>
		<path id="Path" d="M300 230.39C294.83 230.51 287.51 229.9 286.14 225.64C285.3 223.04 285.88 220.53 287.73 218.56C290.23 215.9 294.64 214.52 300 214.61L300 214C294.44 213.94 289.86 215.38 287.26 218.16C285.23 220.31 284.61 223.02 285.51 225.82C286.5 228.87 290.16 230.59 296.38 230.93C297.2 230.98 298.01 231 298.79 231C299.2 231 299.59 231 299.97 230.98L299.97 230.39L300 230.39Z" fill="#848484" fill-opacity="1.000000" fill-rule="nonzero"/>
		<path id="Path" d="M23.75 154.71C31.92 157.91 39.73 161 45 161C46.43 161 47.66 160.77 48.68 160.27C50.11 159.57 51.01 158.31 51.4 156.55C52.33 152.41 47.73 148.42 40.75 142.39C33.83 136.41 24.36 128.24 15.99 116C10.33 107.71 4.97 102.37 0.02 100L0.02 100.68C4.79 103.06 9.96 108.27 15.45 116.33C23.88 128.66 33.37 136.84 40.31 142.84C47.12 148.73 51.64 152.62 50.78 156.4C50.41 158 49.63 159.07 48.38 159.69C43.9 161.95 34.24 158.14 24.01 154.11C17.27 151.46 10.29 148.71 4.23 147.47C2.72 147.16 1.29 146.96 0 146.85L0 147.47C1.25 147.58 2.63 147.76 4.1 148.07C10.09 149.33 17.03 152.06 23.75 154.71Z" fill="#848484" fill-opacity="1.000000" fill-rule="nonzero"/>
		<path id="Path" d="M19.72 144C21.87 144 23.23 143.48 23.79 142.46C25.15 139.91 21.04 135.05 11.55 127.95C7.26 124.76 2.8 121.81 0 120L0 120.69C9.38 126.73 25.4 138.15 23.25 142.18C22.8 143.04 21.56 143.42 19.83 143.42C15.26 143.42 7.18 140.91 0 138.23L0 138.87C1.54 139.45 3.17 140.03 4.82 140.59C11.53 142.86 16.52 144 19.72 144Z" fill="#848484" fill-opacity="1.000000" fill-rule="nonzero"/>
		<path id="Shape" d="M116.889 186.53C115.619 187.972 114.414 189.615 113.271 191.438C110.881 195.264 107.18 198.468 104.473 200.812C101.934 203.015 100.41 204.337 100.834 205.259C101.045 205.7 101.639 206 103.414 206C104.24 206 105.34 205.94 106.777 205.78C116.656 204.778 138.592 190.516 138.551 183.686C138.529 181.623 136.709 180.421 133.113 180.08C127 179.519 120.93 181.923 116.889 186.53ZM126.006 196.465C133.389 191.498 137.979 186.59 137.957 183.706C137.936 182.003 136.309 181.002 133.113 180.701C132.543 180.641 131.971 180.621 131.4 180.621C126.07 180.621 120.951 182.905 117.418 186.911C116.17 188.313 114.984 189.955 113.863 191.738C111.432 195.644 107.666 198.889 104.938 201.253C104.906 201.281 104.873 201.308 104.842 201.336C103.053 202.893 101.219 204.487 101.469 204.998C101.617 205.319 102.652 205.599 106.756 205.179C111.283 204.718 118.836 201.293 126.006 196.465Z" clip-rule="evenodd" fill="#848484" fill-opacity="1.000000" fill-rule="evenodd"/>
		<path id="Path" d="M22.1 82.04C26.93 90.52 32.1 99.24 37.15 105.61C42.7 112.6 47.53 116 51.93 116C51.97 116 52.02 116 52.06 116C56.44 115.93 60.3 112.58 63.86 105.78C71.35 91.5 80.21 82.78 89.5 80.59C95.85 79.1 102.38 80.57 108.88 85.01C113.88 88.43 117.44 89.56 119.71 88.47C123.08 86.88 123.28 80.92 123.49 74.04C123.73 66.48 123.99 57.9 128.73 53.97C130.94 52.15 133.9 51.47 137.78 51.88C147.95 52.99 157.63 51.51 165.76 47.66C173.49 44 179.47 38.41 183.06 31.49C186.47 24.91 187.46 17.5 185.95 10.09C185.33 6.99 184.28 3.96 182.84 1L182.11 1C187.14 11.11 187.41 21.76 182.5 31.22C178.98 38.02 173.1 43.51 165.51 47.11C157.48 50.92 147.91 52.35 137.87 51.27C133.85 50.84 130.64 51.57 128.32 53.5C123.36 57.59 123.1 66.32 122.85 74C122.65 80.41 122.46 86.47 119.44 87.9C117.38 88.88 114.05 87.76 109.24 84.48C102.57 79.93 95.88 78.42 89.33 79.96C79.85 82.21 70.83 91.03 63.28 105.47C59.83 112.04 56.16 115.28 52.06 115.34C52.02 115.34 51.97 115.34 51.93 115.34C42.6 115.34 32.36 98.73 22.66 81.7C16.72 71.25 9.49 64.09 1.14 60.28L1.14 60.95C9.27 64.8 16.31 71.85 22.1 82.04Z" fill="#848484" fill-opacity="1.000000" fill-rule="nonzero"/>
		<path id="Path" d="M29.98 56C33.67 56 36.91 55.48 39.58 54.43C45.66 52.04 48.69 47.16 48.58 39.88C48.48 32.74 50.46 27.42 54.64 23.66C64.95 14.31 87.13 15.92 110.64 17.65C114.1 17.89 117.68 18.16 121.2 18.39C124.63 18.61 127.79 18.72 130.69 18.72C143.94 18.72 151.45 16.43 153.09 11.88C154.24 8.67 152.32 4.78 149.25 1L148.42 1C151.58 4.76 153.58 8.61 152.5 11.7C150.62 16.93 140.12 18.99 121.26 17.79C117.74 17.57 114.16 17.3 110.7 17.05C87.07 15.32 64.73 13.7 54.22 23.23C49.91 27.14 47.86 32.59 47.96 39.92C48.07 46.92 45.17 51.63 39.37 53.9C31.9 56.82 19.76 55.48 6.02 50.23C4.38 49.61 2.76 48.93 1.14 48.23L1.14 48.91C2.67 49.59 4.23 50.23 5.79 50.81C14.77 54.22 23.13 56 29.98 56Z" fill="#848484" fill-opacity="1.000000" fill-rule="nonzero"/>
		<path id="Path" d="M17.8 35.95C25.47 35.51 31.98 31.67 37.16 24.53L38.01 23.35C44.3 14.69 47.46 10.34 52.13 8.54C56.8 6.73 63.14 7.38 75.76 8.7C77.3 8.86 78.94 9.02 80.66 9.21C95.62 10.75 106.45 11.26 113.79 10.77C120.85 10.3 124.85 8.94 126.39 6.48C127.33 4.98 127.29 3.15 126.52 1L125.86 1C126.62 3.07 126.71 4.8 125.84 6.18C124.43 8.43 120.48 9.73 113.74 10.18C106.45 10.65 95.66 10.14 80.73 8.6C79 8.41 77.36 8.25 75.83 8.09C63.09 6.75 56.72 6.08 51.88 7.97C47.03 9.86 43.83 14.25 37.48 23.01L36.63 24.19C31.55 31.16 25.22 34.92 17.75 35.34C13.91 35.57 8.35 34.94 1.14 31.73L1.14 32.4C7.47 35.18 12.55 36 16.32 36C16.83 36 17.33 35.97 17.8 35.95Z" fill="#848484" fill-opacity="1.000000" fill-rule="nonzero"/>
		<path id="Path" d="M26.19 22.45C29.34 21.04 31.49 18.63 32.57 15.29C34.18 10.42 34.53 5.52 34.27 1L33.61 1C33.87 5.46 33.52 10.3 31.93 15.1C30.9 18.27 28.85 20.55 25.88 21.88C18.82 25.07 7.81 22.45 0 19.87L0 20.55C5.25 22.28 11.9 24 17.89 24C20.91 23.97 23.77 23.55 26.19 22.45Z" fill="#848484" fill-opacity="1.000000" fill-rule="nonzero"/>
		<path id="Path" d="M157.83 16.07C153.58 24.05 134.89 22.97 134.68 22.95C124.21 22.95 114.48 22.23 105.91 21.58C93.15 20.62 82.12 19.8 73.97 21.82C69.66 22.89 66.31 24.7 63.75 27.36C60.98 30.22 59.1 34.08 57.99 39.12C54.3 55.99 44.64 58.01 36.85 59.62C32.16 60.6 28.1 61.44 26.76 65.44C25.55 69.1 26.95 76.37 30.39 83.96C34.06 92.11 39.05 98.42 43.74 100.83C45.26 101.61 46.77 102 48.2 102C50.93 102 53.51 100.61 55.77 97.89C59.21 93.77 62 89.27 64.71 84.92C69.77 76.8 74.12 69.79 80.88 68.22C85.04 67.26 89.88 68.44 95.64 71.9C103.28 76.45 108.57 77.88 111.84 76.27C115.89 74.26 116.29 68.08 116.72 61.5C117.3 52.68 117.89 43.55 127.36 43.96C129.54 44.04 131.63 44.1 133.66 44.1C154.14 44.1 167.43 39.47 173.17 30.28C177.69 23.07 176.54 14.37 174.79 8.37C173.95 5.49 172.91 2.96 171.99 1L171.29 1C172.23 2.96 173.32 5.59 174.17 8.55C177.26 19.23 175.02 26.09 172.61 29.97C166.43 39.86 151.19 44.37 127.39 43.37C122.84 43.18 119.81 45.02 118.13 49C116.66 52.45 116.36 57.05 116.08 61.5C115.68 67.89 115.27 73.92 111.54 75.75C108.49 77.27 103.41 75.84 95.96 71.41C90.03 67.87 85.04 66.65 80.71 67.67C73.69 69.3 69.25 76.41 64.14 84.66C61.45 88.99 58.65 93.46 55.24 97.54C51.91 101.53 48.14 102.44 44 100.32C39.43 97.97 34.53 91.78 30.92 83.76C27.61 76.41 26.16 69.14 27.32 65.67C28.55 61.99 32.24 61.22 36.94 60.26C40.86 59.44 45.3 58.52 49.27 55.62C53.85 52.27 56.9 46.92 58.57 39.26C60.64 29.77 65.41 24.58 74.08 22.44C77.7 21.54 81.95 21.21 86.66 21.21C92.38 21.21 98.84 21.7 105.8 22.21C114.4 22.85 124.12 23.58 134.6 23.58C134.6 23.58 134.6 23.58 134.62 23.58C134.66 23.58 139.48 23.89 144.75 23.15C151.92 22.17 156.48 19.88 158.36 16.37C160.39 12.55 159.09 7.41 154.48 1.02L153.71 1.02C158.4 7.35 159.77 12.39 157.83 16.07Z" fill="#848484" fill-opacity="1.000000" fill-rule="nonzero"/>
		<path id="Path" d="M159.21 23.87C155.71 28.13 145.12 29.89 128.61 28.98C116.07 28.29 104.45 26.28 104.35 26.26C104.28 26.24 97.19 25.01 89.2 26.53C84.49 27.4 80.38 29.04 76.99 31.41C72.74 34.35 69.6 38.42 67.68 43.49C63.96 53.31 59.8 60.01 54.93 64C50.7 67.46 46.58 68.38 42.73 69.02C37.12 69.95 35.22 73.44 34.62 76.2C33.42 81.6 36.31 88.88 40.79 91.81C42.01 92.6 43.25 93 44.44 93C45.55 93 46.64 92.66 47.67 91.98C51.87 89.2 56.19 83.84 60.76 78.19C69.45 67.42 78.44 56.29 87.48 61.88C88.8 62.69 90.08 63.5 91.3 64.29C97.92 68.5 103.17 71.84 106.48 70.26C108.45 69.33 109.56 66.86 109.96 62.46C110.8 53.37 112.33 46.52 117.14 42.66C120.56 39.9 125.43 38.88 132.05 39.5C150.58 41.27 162.8 38.07 168.37 30.04C172.84 23.6 172.07 15.24 170.64 9.34C169.83 6 168.71 3.05 167.84 1L167.16 1C168.03 3.03 169.18 6.04 170.02 9.49C171.41 15.26 172.15 23.43 167.84 29.68C162.41 37.51 150.39 40.6 132.11 38.88C125.32 38.24 120.3 39.31 116.73 42.18C111.78 46.19 110.18 53.16 109.32 62.42C108.94 66.53 107.93 68.92 106.2 69.73C103.21 71.14 98.11 67.9 91.66 63.79C90.42 63 89.14 62.19 87.82 61.38C83.52 58.72 78.89 59.39 73.66 63.41C69.09 66.9 64.6 72.47 60.27 77.84C55.74 83.47 51.45 88.76 47.33 91.5C44.91 93.1 42.65 92.29 41.15 91.31C36.86 88.51 34.11 81.52 35.24 76.35C35.81 73.77 37.59 70.51 42.84 69.64C46.77 68.98 50.98 68.04 55.33 64.47C60.29 60.4 64.52 53.62 68.28 43.69C70.16 38.73 73.21 34.77 77.33 31.9C80.64 29.6 84.68 28 89.29 27.13C92.28 26.57 95.14 26.38 97.56 26.38C101.49 26.38 104.18 26.86 104.22 26.86C104.33 26.88 115.99 28.89 128.56 29.58C145.52 30.51 156.01 28.73 159.7 24.24C163.35 19.82 164.21 13.89 162.16 7.01C161.45 4.67 160.53 2.59 159.72 1L159 1C159.83 2.57 160.81 4.73 161.54 7.18C162.93 11.85 163.65 18.49 159.21 23.87Z" fill="#848484" fill-opacity="1.000000" fill-rule="nonzero"/>
		<path id="Shape" d="M98.7051 31.384C96.3535 30.7072 93.8086 30.9328 91.5215 31.9993C88.9551 33.2094 81.5371 37.8446 81.3027 43.2796C81.1738 46.3971 83.3555 49.248 87.7793 51.7912C90.4316 53.3089 92.6328 55.4624 94.5781 57.3698C96.6309 59.3797 98.2773 61 99.709 61C99.8379 61 99.9668 60.9795 100.094 60.959C100.971 60.7744 101.635 59.954 102.168 58.3953C104.221 52.4885 107.172 41.6389 103.836 35.4654C102.725 33.4145 100.992 32.0403 98.7051 31.384ZM99.9668 60.3642C100.586 60.2206 101.121 59.5233 101.57 58.2107C106.273 44.6333 104.648 38.3163 103.258 35.7731C102.232 33.8862 100.629 32.6146 98.5117 31.9993Q98.0137 31.8519 97.5039 31.7633Q96.7363 31.6301 95.9473 31.6301C94.5352 31.6301 93.125 31.9378 91.7988 32.5531C89.3203 33.7221 82.1582 38.1727 81.9434 43.3001C81.8145 46.1715 83.9102 48.8583 88.123 51.2579C90.8379 52.7961 93.168 55.0932 95.0488 56.9391L95.0742 56.9629C97.0723 58.9217 98.7949 60.6093 99.9668 60.3642Z" clip-rule="evenodd" fill="#848484" fill-opacity="1.000000" fill-rule="evenodd"/>
		<path id="Shape" d="M95.3906 42.1309C94.7129 41.8969 93.9785 41.982 93.3203 42.3436C93.3008 42.3648 90.5332 43.9388 90.459 46.1083C90.4219 47.1931 91.043 48.1714 92.3027 49.0222C93 49.4902 93.584 50.1708 94.0918 50.7664C94.6934 51.4683 95.1445 52 95.6152 52C95.6719 52 95.709 52 95.7656 51.9787C96.1797 51.8724 96.3691 51.3832 96.4629 51.0216C97.0273 49.1073 97.8359 45.5978 96.8965 43.5559C96.5762 42.8328 96.0684 42.3648 95.3906 42.1309ZM95.6543 51.3406C95.709 51.3406 95.8223 51.1705 95.9355 50.8089C96.3496 49.3413 97.2715 45.7254 96.4258 43.8324C96.1621 43.2794 95.7852 42.9178 95.2578 42.7477C95.0508 42.6839 94.8262 42.6413 94.6191 42.6413C94.2598 42.6413 93.9219 42.7264 93.584 42.9178C93.0742 43.2156 91.0977 44.5981 91.043 46.1508C91.0039 46.9591 91.5312 47.7461 92.6035 48.4692C93.3574 48.9797 93.998 49.7241 94.5059 50.3197C94.5312 50.3486 94.5566 50.378 94.584 50.4078C94.9824 50.8612 95.459 51.4005 95.6543 51.3406Z" clip-rule="evenodd" fill="#848484" fill-opacity="1.000000" fill-rule="evenodd"/>
		<path id="Path" d="M300 48.11C288.14 40.11 273.87 33.44 262.55 37.18C254.37 39.88 248.69 47.77 245.71 60.62C244.34 66.55 240.91 70.29 235.53 71.73C225.46 74.46 209.34 68.2 198.09 57.16C189.07 48.34 185.44 38.64 188.14 30.57C190.65 23.09 191.36 14.96 190.27 6.44C190.03 4.63 189.71 2.82 189.32 1L188.66 1C189.07 2.87 189.39 4.69 189.62 6.52C190.72 14.96 190.01 23.01 187.55 30.41C184.76 38.7 188.44 48.6 197.64 57.61C203 62.85 209.73 67.26 216.6 70.03C221.49 72 226.21 73 230.37 73C232.29 73 234.09 72.77 235.72 72.34C241.25 70.86 244.94 66.86 246.35 60.76C249.29 48.13 254.8 40.41 262.77 37.77C273.96 34.07 288.21 40.86 300 48.89L300 48.11Z" fill="#848484" fill-opacity="1.000000" fill-rule="nonzero"/>
		<path id="Path" d="M300 32.49C291.28 25.35 277.62 19.03 266.51 21.18C259.61 22.51 254.36 26.91 250.92 34.21C246.16 44.31 240.12 51.39 232.94 55.27C225.26 59.42 218.42 58.73 214.05 57.42C208.75 55.83 204.18 52.47 201.17 47.97C198.05 43.33 196.9 37.85 197.94 32.55C200.1 21.55 200.93 10.95 200.4 1L199.76 1C200.27 10.89 199.46 21.47 197.32 32.43C196.26 37.89 197.43 43.51 200.64 48.28C203.73 52.9 208.43 56.34 213.87 57.97C216.16 58.67 218.51 59 220.86 59C225.06 59 229.31 57.91 233.27 55.78C240.57 51.84 246.69 44.66 251.52 34.43C254.87 27.32 259.96 23.06 266.64 21.75C272.06 20.71 278.58 21.65 285.47 24.51C290.64 26.66 295.85 29.81 300 33.29L300 32.49Z" fill="#848484" fill-opacity="1.000000" fill-rule="nonzero"/>
		<path id="Path" d="M160.06 281.61C159.52 281.13 158.83 280.93 158.03 281.01C155.33 281.28 151.64 284.85 148.85 288L149.67 288C152.33 285.02 155.72 281.84 158.09 281.59C158.7 281.53 159.2 281.67 159.62 282.03C161.07 283.29 162.68 285.58 164.15 288L164.88 288C163.35 285.45 161.61 282.98 160.06 281.61Z" fill="#848484" fill-opacity="1.000000" fill-rule="nonzero"/>
		<path id="Path" d="M300 20.7C298.23 20.85 296.28 20.85 294.19 20.66C286.86 20 278.01 17.25 269.89 13.09C260.47 8.27 252.6 15.46 243.52 23.78C236.6 30.12 228.75 37.29 219.04 39.89C215.62 40.81 212.98 40.33 211.15 38.52C204.94 32.3 209.09 11.95 211.93 1L211.26 1C210.4 4.34 209.41 8.52 208.64 12.89C206.25 26.46 206.94 35.24 210.68 38.98C212.03 40.33 213.77 41 215.88 41C216.91 41 218.01 40.83 219.21 40.52C229.05 37.9 236.98 30.66 243.94 24.26C252.86 16.11 260.56 9.06 269.56 13.68C277.86 17.94 286.58 20.64 294.1 21.31C296.21 21.49 298.19 21.51 299.97 21.37L299.97 20.7L300 20.7Z" fill="#848484" fill-opacity="1.000000" fill-rule="nonzero"/>
		<path id="Path" d="M220.95 27.93C221.3 27.97 221.62 28 221.97 28C227.71 28 234.12 22.03 237.55 18.31C242.1 13.4 246.53 7.02 249.62 1L248.9 1C245.86 6.88 241.52 13.09 237.08 17.9C230.94 24.52 225.25 27.87 221.04 27.32C219.29 27.1 218.15 26.34 217.54 25.05C215.28 20.15 221.41 8.74 226.22 1.02L225.46 1.02C224.52 2.57 223.5 4.24 222.53 5.98C217.24 15.4 215.36 21.9 216.96 25.3C217.63 26.79 218.99 27.69 220.95 27.93Z" fill="#848484" fill-opacity="1.000000" fill-rule="nonzero"/>
		<path id="Path" d="M228.67 14.97C228.8 15 228.96 15 229.12 15C230.45 15 232.56 14.23 235.49 11.03C237.67 8.67 239.76 5.47 240.98 2.67C241.18 2.2 241.4 1.63 241.6 1.02L240.91 1.02C240.76 1.46 240.58 1.93 240.38 2.42C237.87 8.19 232.14 14.78 228.78 14.32C228.16 14.23 227.76 13.98 227.54 13.51C226.41 11.05 231 3.77 232.98 1L232.18 1C230.76 3.05 225.58 10.8 226.94 13.76C227.23 14.44 227.8 14.85 228.67 14.97Z" fill="#848484" fill-opacity="1.000000" fill-rule="nonzero"/>
		<path id="Path" d="M299.98 12.57C297.15 14.12 293.86 14.68 290.19 14.2C286.08 13.68 281.47 11.92 276.48 8.98C272.12 6.41 268.22 3.36 265.45 1L264.5 1C267.33 3.44 271.48 6.76 276.17 9.52C281.25 12.51 285.93 14.31 290.12 14.83C290.99 14.93 291.84 15 292.69 15C295.37 15 297.81 14.43 300 13.28L300 12.57L299.98 12.57Z" fill="#848484" fill-opacity="1.000000" fill-rule="nonzero"/>
		<path id="Shape" d="M183.033 184.624C173.113 182.401 166.008 182.464 161.908 184.79C156.391 187.927 151.346 193.079 152.439 196.299C153.041 198.086 155.338 199 159.268 199C160.297 199 161.436 198.938 162.701 198.813L164.441 198.647C171.439 197.961 181.035 197.006 189.086 195.842C202.055 193.973 203.77 192.581 203.812 191.563C203.855 190.815 203.062 189.797 196.688 188.654C196.172 188.467 190.117 186.224 183.033 184.624ZM188.957 195.24C201.688 193.391 203.105 192.041 203.129 191.542C203.148 191.293 202.699 190.379 196.492 189.257L196.43 189.236C196.363 189.215 190.16 186.868 182.861 185.227C179.104 184.375 174.617 183.627 170.537 183.627C167.34 183.627 164.377 184.105 162.207 185.33C159.482 186.888 156.926 188.904 155.188 190.877C153.363 192.975 152.59 194.824 153.02 196.112C153.686 198.024 156.99 198.751 162.594 198.19L164.355 198.044C171.354 197.338 180.928 196.403 188.957 195.24Z" clip-rule="evenodd" fill="#848484" fill-opacity="1.000000" fill-rule="evenodd"/>
		<path id="Shape" d="M174.371 48.7894C169.432 50.8774 167.008 52.7117 167.186 54.2728C167.297 55.4046 168.697 56.2828 171.479 56.9267C174.551 57.6487 177.486 58 180.002 58C183.762 58 186.586 57.2195 187.477 55.7364C188.633 53.824 186.32 51.5214 184.184 49.9017C181.471 47.8528 177.621 47.4235 174.371 48.7894ZM171.635 56.3608C178.732 58.039 185.564 57.6292 186.875 55.4632C187.633 54.2338 186.543 52.4581 183.74 50.3506C182.182 49.1992 180.246 48.5943 178.287 48.5943C177.043 48.5943 175.797 48.8285 174.639 49.3163C170.121 51.2287 167.697 52.9654 167.83 54.2143C167.92 55.0534 169.232 55.7949 171.635 56.3608Z" clip-rule="evenodd" fill="#848484" fill-opacity="1.000000" fill-rule="evenodd"/>
		<path id="Path" d="M235.07 281.66C223.84 280.31 217.24 271.28 208.92 259.83C206.6 256.64 204.18 253.33 201.46 249.9C194.66 241.29 187.03 236.12 178.81 234.53C169.48 232.73 159.22 235.51 148.34 242.78C136.38 250.78 119.07 263.63 104.22 275.57C100.06 278.92 94.63 283.38 89.31 288L90.26 288C94.48 284.36 99.29 280.35 104.63 276.04C119.46 264.12 136.74 251.27 148.68 243.29C168.96 229.74 186.55 232.09 200.93 250.28C203.62 253.7 206.03 257.01 208.36 260.2C216.79 271.77 223.45 280.88 234.96 282.27C243.12 283.25 247.8 285.17 248.93 288L249.61 288C248.56 284.83 243.66 282.7 235.07 281.66Z" fill="#848484" fill-opacity="1.000000" fill-rule="nonzero"/>
		<path id="Path" d="M174.2 258.12C170.15 256.44 165.99 256.64 161.84 258.71C151.53 263.83 142.18 269.87 134.06 276.71C129.07 280.91 125.3 284.77 122.52 288L123.37 288C129.71 280.75 141.97 269.25 162.11 259.24C166.1 257.27 170.06 257.07 173.92 258.67C181.7 261.9 187.78 271.84 191.51 279.63C192.95 282.6 194.15 285.5 195.11 288L195.8 288C194.81 285.44 193.59 282.46 192.11 279.39C186.63 267.93 180.58 260.76 174.2 258.12Z" fill="#848484" fill-opacity="1.000000" fill-rule="nonzero"/>
		<g opacity="0.459984" style="mix-blend-mode:normal">
			<path id="Path" d="M261.15 161.79C261.77 161.93 262.34 162 262.89 162C265.86 162 267.94 160.06 268.71 157.98C269.64 155.44 268.91 152.01 265.11 150.55C258.96 148.16 254.64 147.45 252.25 148.41C251.17 148.83 250.66 149.85 250.77 151.28C250.93 153.09 252.1 155.35 253.91 157.35C255.95 159.59 258.51 161.16 261.15 161.79Z" fill="#848484" fill-opacity="1.000000" fill-rule="nonzero"/>
			<path id="Path" d="M262.89 162C265.86 162 267.94 160.06 268.71 157.98C269.64 155.44 268.91 152.01 265.11 150.55C258.96 148.16 254.64 147.45 252.25 148.41C251.17 148.83 250.66 149.85 250.77 151.28C250.93 153.09 252.1 155.35 253.91 157.35C255.95 159.59 258.51 161.16 261.15 161.79C261.77 161.93 262.34 162 262.89 162Z" stroke="#575757" stroke-opacity="1.000000" stroke-width="5.000000"/>
		</g>
		<path id="Shape" d="M74.1504 211.027C71.9199 212.224 71.7832 214.369 72.5801 215.855C73.2168 217.01 74.5371 218 76.2207 218C76.7441 218 77.3125 217.897 77.8809 217.691C81.748 216.267 84.0234 214.823 84.6152 213.42C84.9121 212.76 84.6387 212.059 83.8652 211.46C82.0684 210.058 77.5176 209.232 74.1504 211.027ZM77.6309 217.113C81.2715 215.772 83.4785 214.41 84.002 213.193C84.2285 212.678 83.8184 212.224 83.4102 211.935C82.4551 211.192 80.5664 210.635 78.5645 210.635C77.1758 210.635 75.7422 210.903 74.4922 211.564C72.625 212.554 72.4902 214.287 73.1953 215.566C73.9004 216.845 75.584 217.876 77.6309 217.113Z" clip-rule="evenodd" fill="#848484" fill-opacity="1.000000" fill-rule="evenodd"/>
		<path id="Shape" d="M95.6895 274.656C98.7129 273.512 107.848 269.176 108.689 267.189C108.885 266.748 108.754 266.326 108.322 266.005C106.25 264.359 95.8633 264.74 91.543 267.109C89.082 268.454 88.9102 270.883 89.8164 272.569C90.5293 273.894 91.9766 274.998 93.832 274.998C94.4375 275.018 95.043 274.917 95.6895 274.656ZM91.8672 267.631C89.752 268.795 89.5996 270.822 90.3984 272.308C91.1992 273.793 93.1211 274.998 95.4316 274.094C99.2539 272.629 107.395 268.534 108.064 266.968C108.129 266.828 108.15 266.667 107.891 266.467C106.033 265.001 95.8203 265.463 91.8672 267.631Z" clip-rule="evenodd" fill="#848484" fill-opacity="1.000000" fill-rule="evenodd"/>
		<path id="Path" d="M18.19 14.32C21.81 12.16 20.6 5.32 19.42 1L18.73 1C19.04 2.08 19.33 3.34 19.58 4.66C20.16 8.01 20.33 12.34 17.81 13.85C14.86 15.6 8.88 13.31 0 7.04L0 7.8C6.85 12.59 12.05 15 15.53 15C16.56 14.98 17.45 14.76 18.19 14.32Z" fill="#848484" fill-opacity="1.000000" fill-rule="nonzero"/>
		<path id="Shape" d="M136.115 149.873C138.492 150.709 141.826 151 144.945 151C146.348 151 147.707 150.942 148.916 150.845C152.801 150.534 157.217 149.679 157.918 148.222C158.152 147.717 158.088 146.94 156.305 146.124C156.262 146.105 152.801 144.609 148.619 143.424C142.951 141.831 138.705 141.578 136.008 142.647C134.5 143.249 133.504 144.259 133.016 145.638C132.547 146.921 132.717 148.688 136.115 149.873ZM136.264 143.171C134.926 143.696 134.033 144.589 133.609 145.813C133.078 147.328 133.992 148.513 136.369 149.329C139.172 150.301 143.969 150.65 148.873 150.262C153.396 149.893 156.877 148.96 157.344 147.989C157.578 147.484 156.75 146.979 156.029 146.649C155.816 146.551 146.602 142.589 139.979 142.589C138.598 142.589 137.324 142.744 136.264 143.171Z" clip-rule="evenodd" fill="#848484" fill-opacity="1.000000" fill-rule="evenodd"/>
		<path id="Path" d="M261.55 268.59C250.23 266.64 248.87 259.35 247.16 250.11C245.23 239.8 242.85 226.96 225.51 216.73C216.82 211.62 208.5 208.41 200.05 206.93C192.5 205.61 184.99 205.69 177.14 207.19C162.55 209.99 148.77 217.46 135.43 224.67C122.94 231.43 110.03 238.44 96.13 241.89C88.66 243.76 81.54 244.45 74.35 244.04C66.29 243.57 58.35 241.73 50.11 238.38C35.72 232.53 21.41 230.5 7.59 232.32C5.04 232.67 2.5 233.14 0 233.75L0 234.38C2.55 233.77 5.1 233.28 7.7 232.93C21.41 231.11 35.59 233.14 49.87 238.92C60.02 243.04 69.42 244.75 78.28 244.75C99.67 244.75 117.93 234.86 135.75 225.22C149.65 217.69 162.76 210.58 177.27 207.8C185.03 206.3 192.45 206.22 199.92 207.53C208.31 209 216.57 212.18 225.17 217.26C232.78 221.75 242.27 227.33 246.54 250.21C247.42 254.98 248.19 259.1 250.23 262.41C252.48 266.09 256.06 268.24 261.45 269.17C277.39 271.94 286.87 276.3 291.26 282.92C292.32 284.48 293.09 286.19 293.6 288L294.27 288C293.73 286.07 292.94 284.28 291.8 282.59C287.3 275.83 277.69 271.37 261.55 268.59Z" fill="#848484" fill-opacity="1.000000" fill-rule="nonzero"/>
		<path id="Path" d="M249.1 275.32C235.61 273.42 234.34 269.61 231.6 261.29C229.19 254.05 225.57 243.06 211.39 227.14C192.32 205.7 172.09 219.11 148.66 234.63C124.92 250.37 97.99 268.19 65.13 255.36C52.53 250.43 39.83 248.01 27.35 248.11C18.06 248.19 8.85 249.69 0 252.55L0 253.2C8.85 250.31 18.04 248.82 27.35 248.74C39.75 248.62 52.36 251.06 64.87 255.94C79.67 261.74 94.62 261.84 110.54 256.29C124.46 251.42 136.95 243.15 149.03 235.15C160.61 227.48 171.55 220.24 181.79 217.65C193.09 214.79 202.34 217.94 210.9 227.56C224.99 243.41 228.6 254.31 230.98 261.51C233.72 269.83 235.12 274.01 249.02 275.97C257.15 277.12 262.23 279.94 264.14 284.36C264.61 285.47 264.89 286.68 265 288L265.64 288C265.56 286.6 265.26 285.31 264.74 284.14C262.73 279.46 257.47 276.51 249.1 275.32Z" fill="#848484" fill-opacity="1.000000" fill-rule="nonzero"/>
		<path id="Path" d="M181.42 247.72C175.46 243.96 167.48 244.08 157.69 248.15C149.92 251.36 141 257.05 131.15 265.01C121.09 273.18 112.09 282.12 106.48 288L107.34 288C112.95 282.12 121.73 273.43 131.55 265.46C141.36 257.51 150.22 251.87 157.93 248.67C167.5 244.71 175.27 244.55 181.03 248.21C194.41 256.68 201.52 270.99 207.79 283.61C208.54 285.09 209.25 286.55 209.98 287.98L210.68 287.98C209.91 286.47 209.14 284.93 208.37 283.34C202.1 270.66 194.94 256.27 181.42 247.72Z" fill="#848484" fill-opacity="1.000000" fill-rule="nonzero"/>
		<path id="Path" d="M165.49 269.36C162.75 267.5 159.2 267.54 154.96 269.48C151.63 271.02 147.85 273.73 143.73 277.55C139.81 281.2 136.28 285.19 133.96 288L134.79 288C141.37 280.13 156.46 263.98 165.11 269.85C170.7 273.65 173.97 281.18 176.8 288L177.48 288C174.61 281.06 171.29 273.3 165.49 269.36Z" fill="#848484" fill-opacity="1.000000" fill-rule="nonzero"/>
		<path id="Path" d="M59.31 269.1C53.82 267.79 48.14 266.44 43.03 264.83C30.37 260.79 15.69 264.19 5.61 267.75C3.63 268.45 1.75 269.19 0 269.92L0 270.58C1.81 269.82 3.78 269.05 5.85 268.31C15.82 264.79 30.34 261.42 42.82 265.4C47.92 267.04 53.63 268.39 59.14 269.7C71.52 272.65 83.23 275.44 84.04 280.49C84.38 282.62 82.8 285.11 79.25 288L80.19 288C83.55 285.11 85.02 282.6 84.68 280.39C83.78 274.94 72.44 272.23 59.31 269.1Z" fill="#848484" fill-opacity="1.000000" fill-rule="nonzero"/>
		<path id="Path" d="M51.89 277.49C47.6 276.79 42.39 276.83 37.58 277.62C28.69 279.06 11.29 283.67 0 286.78L0 287.42C11.29 284.31 28.8 279.67 37.71 278.21C42.45 277.45 47.58 277.39 51.8 278.09C57.9 279.1 60.04 281.22 60.78 282.85C61.45 284.31 61.28 286.04 60.28 288L61.02 288C61.97 285.98 62.08 284.16 61.36 282.6C59.91 279.43 55.41 278.07 51.89 277.49Z" fill="#848484" fill-opacity="1.000000" fill-rule="nonzero"/>
		<path id="Path" d="M26.28 164.06C35.94 170.26 42.25 179.15 47.79 187C54.08 195.9 59.53 203.59 68.04 204.83C68.83 204.95 69.64 205 70.45 205C77.02 205 84.82 201.39 94.73 193.78C102.15 188.07 108.33 182.88 113.78 178.29C125.28 168.61 133.6 161.61 142.8 159.34C152.18 157.02 162.49 159.47 178.36 167.77C191.32 174.56 206.78 179.23 220.74 180.58C227.24 181.21 233.14 181.09 237.82 180.19C242.77 179.25 246.23 177.56 248.09 175.13C250.63 171.81 251.25 165.63 239.69 155.04C225.85 142.37 210.11 140.84 193.45 139.23C182.42 138.17 171 137.05 159.47 132.62C146.43 127.63 135.12 118.94 124.88 106.11C117.31 96.62 108.47 92.13 99.3 93.13C93.06 93.81 86.92 96.95 81.06 102.43C75.18 107.98 69.88 115.63 65.34 125.18C61.97 132.25 58.25 135.89 53.9 136.25C44.52 137.05 33.65 122 23.17 107.43C17.94 100.15 12.53 92.64 7.37 87.26C4.7 84.42 2.26 82.36 0 81L0 81.75C7.2 86.28 15.03 97.13 22.66 107.74C27.92 115.04 33.38 122.61 38.61 128.12C44.22 133.99 49.01 136.87 53.22 136.87C53.48 136.87 53.73 136.85 53.99 136.83C58.57 136.44 62.48 132.7 65.94 125.4C70.45 115.92 75.69 108.33 81.53 102.84C87.28 97.44 93.29 94.36 99.39 93.7C108.3 92.74 116.96 97.15 124.38 106.45C134.69 119.38 146.11 128.12 159.24 133.15C170.85 137.62 182.31 138.72 193.39 139.8C209.94 141.41 225.57 142.92 239.26 155.45C250.5 165.75 249.99 171.62 247.6 174.75C244.09 179.29 234.08 181.23 220.82 179.95C206.94 178.6 191.57 173.95 178.68 167.2C162.66 158.81 152.23 156.37 142.64 158.73C133.3 161.04 124.94 168.07 113.37 177.83C107.92 182.41 101.76 187.6 94.34 193.29C83.35 201.73 75.03 205.2 68.15 204.2C59.91 203.02 54.54 195.43 48.32 186.64C42.74 178.74 36.41 169.81 26.64 163.53C18.53 158.32 10.82 155.71 3.61 155.71C2.39 155.71 1.19 155.8 0 155.94L0 156.55C8.1 155.55 16.91 158.04 26.28 164.06Z" fill="#848484" fill-opacity="1.000000" fill-rule="nonzero"/>
		<path id="Path" d="M12.05 224.73C21.99 224.87 33.12 226.78 42.94 228.45C57.01 230.85 68.1 232.74 69.47 228.39C71.53 221.85 64.83 216.45 53.7 207.52C45.73 201.11 35.79 193.14 25.15 181.68C17.16 173.09 9.19 169.19 1.5 170.13C1.03 170.2 0.53 170.28 0 170.38L0 171.02C0.51 170.91 1.05 170.81 1.58 170.75C9.06 169.85 16.82 173.67 24.68 182.11C35.36 193.61 45.3 201.6 53.29 208.03C64.21 216.8 70.8 222.1 68.87 228.24C67.67 232.06 56.26 230.11 43.07 227.87C28.83 225.43 12.09 222.57 0 225.06L0 225.7C3.43 224.98 7.43 224.67 12.05 224.73Z" fill="#848484" fill-opacity="1.000000" fill-rule="nonzero"/>
		<path id="Path" d="M40.84 222C46.49 222 49.66 221.02 50.27 219.04C51.61 214.74 40.39 206.98 33.55 202.74C23.88 196.73 12.37 191.07 6.18 189.26C4.12 188.66 2.04 188.25 0 188L0 188.62C1.97 188.87 3.99 189.28 5.99 189.87C12.13 191.66 23.58 197.27 33.18 203.26C44.36 210.23 50.5 216.05 49.61 218.86C48.75 221.6 41.01 222.1 27.83 220.27C17.17 218.81 6.03 216.26 0.02 214.63L0.02 215.28C6.1 216.92 17.17 219.44 27.77 220.91C33.05 221.64 37.41 222 40.84 222Z" fill="#848484" fill-opacity="1.000000" fill-rule="nonzero"/>
		<path id="Path" d="M12.8 210C15.39 210 16.83 209.52 17.11 208.56C17.72 206.64 13.4 203.44 9.67 201.11C6.45 199.08 2.78 197.16 0 196L0 196.68C2.72 197.85 6.23 199.71 9.32 201.65C14.11 204.65 16.85 207.24 16.49 208.39C15.91 210.25 7.25 209.2 0 207.64L0 208.26C2.17 208.72 4.61 209.18 6.99 209.52C9.36 209.83 11.29 210 12.8 210Z" fill="#848484" fill-opacity="1.000000" fill-rule="nonzero"/>
		<path id="Shape" d="M71.0938 193.796C71.6699 193.939 72.2656 194 72.8848 194C79.2188 194 86.959 186.867 95.8105 178.713C101.803 173.194 108.584 166.961 115.75 162.178C123.959 156.721 131.445 154.044 138.652 153.942C148.207 153.819 156.182 153.268 161.705 152.368C167.4 151.428 170.385 150.141 170.598 148.526C170.875 146.441 166.717 144.316 157.91 142.006C143.963 138.348 137.607 132.012 129.547 124.001C124.301 118.789 118.373 112.862 109.223 106.772C106.814 105.157 104.02 104.646 100.971 105.239C91.4805 107.078 79.1328 119.463 64.2695 142.047C60.0898 148.383 57.4238 155.557 56.5059 162.792C55.5039 170.824 56.4004 177.997 59.0664 183.556C61.7109 189.013 65.8691 192.569 71.0938 193.796ZM64.8242 142.374C60.707 148.628 58.0645 155.72 57.168 162.873C56.1875 170.783 57.0605 177.854 59.6836 183.311C62.2227 188.604 66.2305 192.038 71.2637 193.223C71.7969 193.346 72.3516 193.407 72.9062 193.407C78.9629 193.407 86.6191 186.356 95.3613 178.304C101.354 172.765 108.156 166.511 115.387 161.708C123.703 156.19 131.316 153.451 138.652 153.349C148.186 153.227 156.119 152.675 161.6 151.776C168.658 150.611 169.873 149.2 169.98 148.465C170.279 146.135 161.535 143.58 157.76 142.599C143.643 138.879 137.225 132.503 129.121 124.43C123.895 119.239 117.988 113.353 108.883 107.283Q107.666 106.476 106.328 106.062Q104.922 105.627 103.381 105.627C102.654 105.627 101.887 105.709 101.119 105.852C91.8223 107.65 79.6016 119.933 64.8242 142.374Z" clip-rule="evenodd" fill="#848484" fill-opacity="1.000000" fill-rule="evenodd"/>
		<path id="Shape" d="M196.434 166.62C203.172 168.185 214.578 170.48 224.578 171.862C230.102 172.614 234.41 173 237.543 173C241.211 173 243.258 172.472 243.77 171.435C244.305 170.318 243.109 168.814 240.125 166.803C239.719 166.457 231.426 159.427 221.273 153.677C215.176 150.223 209.609 147.907 204.727 146.789C198.566 145.367 193.488 145.875 189.586 148.252C182.443 152.621 179.33 155.932 179.822 158.675C180.355 161.723 185.174 164.019 196.434 166.62ZM198.309 146.606C195.066 146.606 192.273 147.338 189.93 148.76C183.127 152.925 180.035 156.136 180.439 158.533C181.037 161.967 188.926 164.243 196.559 166.01C215.07 170.298 241.574 174.483 243.152 171.171C243.367 170.724 243.215 169.627 239.719 167.27L239.699 167.25C239.613 167.189 231.23 160.016 220.934 154.185C214.898 150.772 209.398 148.476 204.578 147.378C202.34 146.87 200.25 146.606 198.309 146.606Z" clip-rule="evenodd" fill="#848484" fill-opacity="1.000000" fill-rule="evenodd"/>
		<path id="Shape" d="M205.535 161.503C208.02 162.111 212.246 163.014 215.934 163.559C218.148 163.874 219.68 164 220.758 164C222.578 164 223.055 163.643 223.223 163.266C223.531 162.573 222.641 161.797 221.812 161.209C221.586 160.999 218.539 158.271 214.836 156.047C209.617 152.899 205.598 152.186 202.949 153.928C200.195 155.711 199.055 157.033 199.262 158.208C199.531 159.719 201.953 160.622 205.535 161.503ZM206.281 153.655C205.184 153.655 204.168 153.907 203.301 154.473C200.898 156.026 199.738 157.264 199.863 158.103C200.07 159.342 202.906 160.202 205.66 160.873C214.918 163.161 222.246 163.874 222.641 163.014C222.641 163.014 222.766 162.699 221.441 161.734L221.418 161.713C221.316 161.629 212.535 153.655 206.281 153.655Z" clip-rule="evenodd" fill="#848484" fill-opacity="1.000000" fill-rule="evenodd"/>
		<path id="Path" d="M266.23 51.77C261.02 53.6 257.94 58.36 253.64 64.97C251.56 68.18 249.18 71.81 246.21 75.67C236.53 88.14 226.78 83.56 210.64 75.98C202.31 72.06 191.93 67.19 179.1 63.66C160.45 58.53 148.01 58.79 141.07 64.48C134.71 69.7 132.7 79.33 134.71 94.79C136.47 108.2 146.96 118.53 165.89 125.52C183.73 132.09 204.84 133.96 215.82 134.51C234.92 135.44 251.69 138.27 265.69 142.89C276.87 146.59 286.31 151.43 293.74 157.31C296.18 159.24 298.26 161.15 300 163L300 162.09C298.35 160.41 296.44 158.64 294.21 156.88C286.72 150.94 277.21 146.05 265.95 142.34C251.88 137.69 235.03 134.86 215.87 133.92C204.9 133.38 183.88 131.51 166.13 124.96C147.43 118.08 137.07 107.92 135.36 94.75C133.36 79.51 135.31 70.07 141.5 64.99C148.27 59.45 160.52 59.2 178.93 64.3C191.71 67.83 202.05 72.67 210.36 76.58C218.57 80.44 225.05 83.48 230.84 84.01C237.11 84.59 242.01 82.14 246.72 76.08C249.72 72.22 252.1 68.57 254.19 65.34C258.41 58.83 261.48 54.13 266.46 52.38C271.73 50.54 278.86 52.1 290.34 57.6C293.83 59.28 297.04 61.13 300 63.08L300 62.3C297.12 60.41 294 58.65 290.62 57.03C278.94 51.44 271.67 49.86 266.23 51.77Z" fill="#848484" fill-opacity="1.000000" fill-rule="nonzero"/>
		<path id="Path" d="M278.9 71C273.63 71.15 269.17 73.56 265.66 78.18C262.47 82.37 260.22 86.19 258.21 89.53C251.74 100.36 248.78 105.31 228.97 97.82C223.18 95.63 216.37 92.46 209.15 89.09C189.28 79.81 166.74 69.29 154.81 74.41C151.21 75.93 148.75 78.86 147.49 83.07C145.77 88.76 146.43 93.92 149.5 98.4C153.95 104.9 163.34 110.06 178.16 114.18C189.68 117.4 204.53 119.98 224.83 122.33C244.77 124.64 265.43 130.79 282.94 139.62C289.48 142.92 295.28 146.47 300 150L300 149.17C295.35 145.75 289.69 142.32 283.22 139.06C265.64 130.19 244.9 124.02 224.87 121.71C204.59 119.36 189.79 116.78 178.31 113.56C163.64 109.48 154.38 104.38 150.01 98.03C147.06 93.72 146.41 88.74 148.06 83.22C149.31 79.13 151.58 76.43 155.02 74.96C166.7 69.97 189.08 80.43 208.83 89.65C216.05 93.04 222.88 96.21 228.69 98.4C238.48 102.09 244.5 102.92 248.82 101.12C253 99.39 255.4 95.39 258.7 89.84C260.69 86.5 262.94 82.72 266.11 78.55C269.49 74.1 273.78 71.77 278.85 71.62C286.01 71.44 293.78 75.64 299.97 80.12L299.97 79.34C290.25 72.32 283.22 70.88 278.9 71Z" fill="#848484" fill-opacity="1.000000" fill-rule="nonzero"/>
		<path id="Path" d="M277.76 86.13C273.97 86.74 271.17 89.54 269.42 94.46C264.21 109.11 252.01 108.11 243.93 107.46C239.53 107.1 236.34 106.85 235.96 109.23C235.46 112.24 237.21 114.55 241.52 116.48C245.35 118.21 250.87 119.55 257.25 121.08C270.6 124.29 287.71 128.41 299.98 139L299.98 138.16C287.65 127.76 270.67 123.68 257.4 120.49C244.73 117.44 235.59 115.24 236.58 109.31C236.86 107.58 239.41 107.71 243.86 108.07C248 108.4 253.13 108.82 257.98 107.28C263.71 105.45 267.65 101.33 270.02 94.66C271.68 89.99 274.33 87.31 277.87 86.74C284.53 85.64 293.3 91.96 300 98.01L300 97.16C299.65 96.84 299.28 96.53 298.92 96.21C290.21 88.65 283.1 85.26 277.76 86.13Z" fill="#848484" fill-opacity="1.000000" fill-rule="nonzero"/>
		<path id="Path" d="M286.63 101.74C283.28 100.55 280.45 100.78 278.28 102.47C276.5 103.83 275.74 105.77 276 108.22C276.93 116.7 290.13 129.18 300 135L300 134.23C295.62 131.61 290.76 127.77 286.59 123.62C280.63 117.68 277.09 112.18 276.63 108.11C276.39 105.92 277.06 104.17 278.67 102.93C284.52 98.44 294.15 106.32 300 112.16L300 111.24C298.65 109.9 297.1 108.49 295.47 107.15C292.23 104.51 289.26 102.68 286.63 101.74Z" fill="#848484" fill-opacity="1.000000" fill-rule="nonzero"/>
		<path id="Shape" d="M226.07 108.95C225.941 108.869 214.156 100.837 200.555 93.3503C182.248 83.2336 169.521 78.8429 162.764 80.2592C160.668 80.7044 159.127 81.716 158.207 83.2943C154.764 89.1619 158.016 95.2117 167.598 100.796C176.109 105.753 189.711 110.326 203.977 113.017C209.836 114.13 216.512 115 221.492 115C225.129 115 227.887 114.535 228.742 113.341C229.512 112.228 228.617 110.751 226.07 108.95ZM220.273 114.353C226.199 114.494 227.781 113.543 228.188 112.977C228.895 112.005 227.227 110.508 225.684 109.436C225.129 109.051 183.209 80.6032 165.479 80.6032C164.539 80.6032 163.684 80.6841 162.891 80.846C160.988 81.2507 159.598 82.1612 158.764 83.5775C157.053 86.4911 157.074 89.4452 158.85 92.379C160.453 95.0499 163.512 97.7004 167.918 100.27C176.365 105.187 189.883 109.739 204.082 112.41C210.18 113.563 215.934 114.251 220.273 114.353Z" clip-rule="evenodd" fill="#848484" fill-opacity="1.000000" fill-rule="evenodd"/>
		<path id="Shape" d="M205.141 102.927C205.059 102.888 198.863 99.2905 191.945 95.9469C182.602 91.4302 176.451 89.4749 173.684 90.1201C173.004 90.2766 172.492 90.609 172.195 91.0978C170.959 93.1509 172.322 95.3213 176.26 97.5503C180.176 99.7598 186.754 102.008 193.84 103.573C195.203 103.866 200.547 105 203.695 105C204.844 105 205.695 104.863 205.973 104.472C206.461 103.827 205.461 103.142 205.141 102.927ZM193.988 102.986C201.227 104.57 205.102 104.609 205.461 104.12C205.504 104.101 205.441 103.866 204.758 103.397C204.164 103.045 182.41 90.5699 174.896 90.5699C174.492 90.5699 174.152 90.609 173.834 90.6872C173.301 90.8045 172.961 91.0391 172.748 91.3715C171.705 93.0922 172.982 94.9888 176.578 97.0224C180.432 99.2123 186.945 101.441 193.988 102.986Z" clip-rule="evenodd" fill="#848484" fill-opacity="1.000000" fill-rule="evenodd"/>
		<path id="Shape" d="M71.998 180C73.4238 180 75.1699 179.649 77.3008 178.782C95.6133 171.312 104.004 159.983 112.139 149.026L112.799 148.138C115.248 144.836 116.631 140.936 116.781 136.871C116.93 132.785 115.844 128.823 113.586 125.397C111.287 121.889 108.455 119.805 105.154 119.186C101.15 118.443 96.4648 119.929 91.248 123.581C73.7871 135.839 60.9453 167.268 66.6309 177.028C67.5254 178.555 69.1016 180 71.998 180ZM91.6309 124.118C83.7305 129.669 75.959 139.925 70.8477 151.543C66.0566 162.418 64.6289 172.323 67.1855 176.74C68.9102 179.69 72.2109 180.186 77.0449 178.205C95.1875 170.796 103.535 159.55 111.605 148.654L112.266 147.767C114.65 144.568 115.992 140.792 116.143 136.85C116.291 132.888 115.227 129.05 113.055 125.748C110.861 122.405 108.156 120.404 105.047 119.826C104.408 119.702 103.748 119.64 103.088 119.64C99.7031 119.64 95.8691 121.146 91.6309 124.118Z" clip-rule="evenodd" fill="#848484" fill-opacity="1.000000" fill-rule="evenodd"/>
		<path id="Shape" d="M80.5977 166C81.4941 166 82.6074 165.769 83.9609 165.223C95.1387 160.684 100.4 155.768 105.227 149.318C108.262 145.263 108.436 139.968 105.707 135.808C104.33 133.707 102.605 132.468 100.619 132.111C98.1953 131.669 95.4004 132.552 92.2793 134.716C87.5625 137.993 82.9121 143.792 79.8125 150.179C76.8438 156.335 75.9258 161.756 77.4336 164.319C77.9355 165.181 78.873 166 80.5977 166ZM92.6719 135.241C88.0645 138.456 83.4805 144.149 80.4238 150.452C77.5645 156.314 76.625 161.651 78.0215 164.025C78.9395 165.601 80.8613 165.811 83.7207 164.655C94.7676 160.18 99.9434 155.327 104.703 148.961C107.584 145.116 107.76 140.094 105.16 136.165C103.873 134.233 102.322 133.077 100.51 132.741C100.139 132.678 99.7676 132.636 99.375 132.636C97.3887 132.636 95.1602 133.518 92.6719 135.241Z" clip-rule="evenodd" fill="#848484" fill-opacity="1.000000" fill-rule="evenodd"/>
		<path id="Path" d="M290.5 165.92C285.03 162.81 279.57 162.16 275.17 164.07C268.61 166.89 265.61 174.8 268.18 182.46C268.85 184.44 268.44 186.02 266.98 187.26C262.36 191.13 247.44 191.46 226 188.15C207.48 185.28 187.53 180.11 177.45 175.54C169.1 171.75 162.35 171.13 157.39 173.67C152.99 175.91 150.09 180.73 149 187.57C147.36 197.8 124.92 207.57 106.87 215.39C94.07 220.95 83.95 225.34 82.6 228.94C82.36 229.56 82.39 230.14 82.66 230.67C83.87 233.06 86.81 233.47 92.25 232.01C97.25 230.65 104.34 227.75 113.3 224.06C127.19 218.34 146.25 210.49 170.69 203.01C190.73 196.9 208.15 197.6 222.46 205.09C230.21 209.17 236.91 215.19 242.37 222.97C247.03 229.64 250.74 237.61 253.09 246.04C254.8 252.21 258.56 257.36 264.28 261.34C268.89 264.55 274.82 267.02 281.87 268.69C287.37 269.99 293.62 270.77 300 271L300 270.38C293.66 270.15 287.47 269.37 282.02 268.07C275.06 266.44 269.21 263.99 264.66 260.82C259.08 256.93 255.41 251.9 253.71 245.85C251.34 237.34 247.61 229.31 242.9 222.6C237.38 214.71 230.62 208.64 222.76 204.52C208.3 196.92 190.71 196.22 170.5 202.38C146.01 209.85 126.96 217.7 113.04 223.44C95.27 230.75 85.48 234.79 83.25 230.36C83.05 229.97 83.03 229.56 83.2 229.11C84.47 225.75 94.97 221.18 107.15 215.91C116.22 211.97 126.51 207.5 134.6 202.77C143.97 197.29 148.89 192.33 149.64 187.61C150.69 180.98 153.48 176.32 157.69 174.16C162.48 171.71 169.03 172.35 177.2 176.06C192.19 182.85 228.79 190.97 251.02 190.97C258.69 190.97 264.66 190 267.43 187.67C269.11 186.27 269.58 184.44 268.83 182.21C266.36 174.86 269.21 167.26 275.47 164.56C283.5 161.11 292.39 166.34 299.98 174.53L299.98 173.48C296.84 170.29 293.68 167.74 290.5 165.92Z" fill="#848484" fill-opacity="1.000000" fill-rule="nonzero"/>
		<path id="Path" d="M288 176.36C285.77 175.71 283.68 175.93 281.77 177.02C276.19 180.23 277.41 186.13 278.48 191.35C279.23 194.98 279.93 198.4 278.2 200.3C277 201.61 274.67 202.16 271.1 201.96C262.95 201.51 255.12 199.85 248.84 198.52C240.48 196.76 234.42 195.47 232.22 197.82C231.56 198.54 231.24 199.34 231.3 200.22C231.47 203 235.32 206.26 240.22 210.38C247.25 216.32 256.02 223.73 259.04 233.68C261.99 243.39 265.97 252.99 275.16 257.44C278.69 259.14 282.82 260 287.59 260C291.31 260 295.44 259.48 299.97 258.44L299.97 257.8C289.71 260.18 281.62 259.87 275.44 256.88C266.48 252.54 262.55 243.08 259.64 233.5C256.56 223.38 247.73 215.91 240.62 209.91C235.85 205.87 232.09 202.7 231.92 200.16C231.88 199.44 232.14 198.81 232.69 198.21C234.64 196.12 240.84 197.43 248.71 199.09C255.02 200.42 262.89 202.08 271.08 202.53C274.87 202.74 277.35 202.12 278.69 200.65C280.62 198.52 279.89 194.96 279.12 191.19C278.03 185.93 276.92 180.5 282.12 177.51C283.85 176.51 285.77 176.32 287.83 176.89C291.44 177.94 295.61 181.52 300 187.28L300 186.21C296.44 181.73 292.21 177.57 288 176.36Z" fill="#848484" fill-opacity="1.000000" fill-rule="nonzero"/>
		<path id="Path" d="M292.27 196.3C289.19 197.27 287.03 200.51 286.93 204.39C286.86 206.82 286.35 208.33 285.32 209.26C283.08 211.26 277.95 210.95 268.62 210.39L267.52 210.33C263.91 210.13 261.94 210.58 261.29 211.75C260.3 213.59 262.73 216.71 266.1 221.04C269.12 224.89 272.88 229.68 275 234.8C276.62 238.71 279.39 241.42 283.19 242.84C285.43 243.67 287.87 244 290.33 244C293.79 244 297.23 243.36 300 242.63L300 241.97C294.93 243.31 288.57 244.16 283.42 242.26C279.79 240.92 277.15 238.32 275.59 234.57C273.43 229.37 269.65 224.54 266.61 220.67C263.61 216.85 261.04 213.55 261.84 212.06C262.35 211.14 264.18 210.79 267.46 210.97L268.55 211.03C278.35 211.61 283.29 211.9 285.72 209.73C286.91 208.68 287.48 207.03 287.54 204.41C287.64 200.8 289.61 197.79 292.44 196.9C294.7 196.2 297.29 196.84 300 198.68L300 197.89C296.53 195.64 293.85 195.81 292.27 196.3Z" fill="#848484" fill-opacity="1.000000" fill-rule="nonzero"/>
		<path id="Path" d="M287.18 218.18C285.23 220.32 284.63 223.04 285.5 225.83C286.45 228.87 289.98 230.59 295.97 230.93C296.76 230.98 297.55 231 298.29 231C298.87 231 299.46 230.98 300 230.96L300 230.35C295 230.53 287.45 230.04 286.08 225.63C285.27 223.04 285.83 220.53 287.61 218.56C290.1 215.83 294.56 214.43 299.97 214.61L299.97 214C294.42 213.86 289.79 215.32 287.18 218.18Z" fill="#848484" fill-opacity="1.000000" fill-rule="nonzero"/>
		<path id="Path" d="M23.76 154.71C31.93 157.91 39.73 161 45.01 161C46.43 161 47.66 160.77 48.68 160.27C50.11 159.57 51.01 158.31 51.4 156.55C52.33 152.41 47.73 148.42 40.75 142.39C33.83 136.41 24.37 128.24 16.01 116C10.32 107.71 4.99 102.37 0.02 100L0.02 100.68C4.79 103.06 9.96 108.27 15.45 116.33C23.87 128.66 33.36 136.84 40.3 142.84C47.1 148.73 51.62 152.62 50.75 156.4C50.39 158 49.61 159.07 48.36 159.69C43.88 161.95 34.22 158.14 24 154.11C17.26 151.46 10.28 148.71 4.23 147.47C2.72 147.16 1.29 146.96 0 146.85L0 147.47C1.25 147.58 2.63 147.76 4.1 148.07C10.11 149.33 17.07 152.06 23.76 154.71Z" fill="#848484" fill-opacity="1.000000" fill-rule="nonzero"/>
		<path id="Path" d="M19.72 143C21.87 143 23.23 142.48 23.79 141.46C25.15 138.91 21.04 134.05 11.55 126.95C7.26 123.76 2.8 120.81 0 119L0 119.69C9.38 125.73 25.4 137.15 23.25 141.18C22.8 142.04 21.56 142.42 19.83 142.42C15.26 142.42 7.18 139.91 0 137.23L0 137.87C1.54 138.45 3.17 139.03 4.82 139.59C11.51 141.86 16.5 143 19.72 143Z" fill="#848484" fill-opacity="1.000000" fill-rule="nonzero"/>
		<path id="Shape" d="M115.744 186.53C114.475 187.972 113.27 189.615 112.127 191.438C109.736 195.264 106.035 198.468 103.328 200.812C100.789 203.015 99.2656 204.337 99.6895 205.259C99.9004 205.7 100.494 206 102.27 206C103.096 206 104.195 205.94 105.633 205.78C115.512 204.778 137.447 190.516 137.406 183.686C137.385 181.623 135.564 180.421 131.969 180.08C125.855 179.519 119.764 181.923 115.744 186.53ZM124.84 196.465C132.223 191.498 136.812 186.59 136.791 183.706C136.791 182.003 135.143 180.982 131.947 180.701C131.377 180.641 130.805 180.621 130.234 180.621C124.904 180.621 119.785 182.905 116.252 186.911C115.004 188.313 113.82 189.955 112.699 191.738C110.266 195.644 106.5 198.889 103.771 201.253L103.676 201.336C101.887 202.893 100.053 204.487 100.303 204.998C100.451 205.319 101.488 205.599 105.592 205.179C110.117 204.718 117.67 201.293 124.84 196.465Z" clip-rule="evenodd" fill="#848484" fill-opacity="1.000000" fill-rule="evenodd"/>
		<path id="Path" d="M20.96 82.04C25.79 90.52 30.96 99.24 36 105.61C41.56 112.6 46.39 116 50.79 116C50.83 116 50.87 116 50.91 116C55.29 115.93 59.15 112.58 62.72 105.78C70.2 91.5 79.07 82.78 88.36 80.59C94.71 79.1 101.23 80.57 107.73 85.01C112.73 88.43 116.3 89.56 118.57 88.47C121.94 86.88 122.13 80.92 122.35 74.04C122.58 66.48 122.84 57.9 127.58 53.97C129.79 52.15 132.75 51.47 136.64 51.88C146.81 52.99 156.49 51.51 164.62 47.66C172.34 44 178.33 38.41 181.91 31.49C185.33 24.91 186.31 17.5 184.81 10.09C184.19 6.99 183.14 3.96 181.7 1L180.97 1C185.99 11.11 186.27 21.76 181.35 31.22C177.84 38.02 171.96 43.51 164.36 47.11C156.34 50.92 146.77 52.35 136.72 51.27C132.71 50.84 129.49 51.57 127.18 53.5C122.22 57.59 121.96 66.32 121.7 74C121.51 80.41 121.32 86.47 118.29 87.9C116.23 88.88 112.91 87.76 108.1 84.48C101.43 79.93 94.73 78.42 88.19 79.96C78.7 82.21 69.69 91.03 62.14 105.47C58.68 112.04 55.01 115.28 50.91 115.34C50.87 115.34 50.83 115.34 50.79 115.34C41.45 115.34 31.22 98.73 21.52 81.7C15.57 71.31 8.36 64.15 0 60.34L0 61.01C8.11 64.8 15.14 71.85 20.96 82.04Z" fill="#848484" fill-opacity="1.000000" fill-rule="nonzero"/>
		<path id="Path" d="M28.84 56C32.53 56 35.77 55.48 38.44 54.43C44.52 52.04 47.55 47.16 47.44 39.88C47.33 32.74 49.32 27.42 53.5 23.66C63.8 14.31 85.99 15.92 109.5 17.65C112.95 17.89 116.53 18.16 120.06 18.39C123.49 18.61 126.65 18.72 129.55 18.72C142.8 18.72 150.3 16.43 151.95 11.88C153.1 8.67 151.18 4.78 148.11 1L147.28 1C150.43 4.76 152.44 8.61 151.35 11.7C149.47 16.93 138.98 18.99 120.12 17.79C116.6 17.57 113.02 17.3 109.56 17.05C85.92 15.32 63.59 13.7 53.07 23.23C48.76 27.14 46.71 32.59 46.82 39.92C46.93 46.92 44.03 51.63 38.22 53.9C30.76 56.82 18.62 55.48 4.88 50.23C3.24 49.61 1.62 48.93 0 48.23L0 48.91C1.53 49.59 3.09 50.23 4.65 50.81C13.65 54.22 22.01 56 28.84 56Z" fill="#848484" fill-opacity="1.000000" fill-rule="nonzero"/>
		<path id="Path" d="M16.65 35.95C24.33 35.51 30.83 31.67 36.01 24.53L36.87 23.35C43.16 14.69 46.32 10.34 50.99 8.54C55.66 6.73 61.99 7.38 74.62 8.7C76.15 8.86 77.79 9.02 79.52 9.21C94.49 10.73 105.33 11.26 112.64 10.77C119.7 10.3 123.71 8.94 125.25 6.48C126.18 4.98 126.14 3.15 125.37 1L124.71 1C125.48 3.07 125.57 4.8 124.69 6.18C123.28 8.39 119.34 9.71 112.6 10.16C105.31 10.65 94.51 10.14 79.58 8.6C77.86 8.41 76.22 8.25 74.68 8.09C61.95 6.75 55.57 6.08 50.73 7.97C45.89 9.86 42.69 14.25 36.33 23.01L35.48 24.19C30.41 31.16 24.07 34.92 16.61 35.34C12.77 35.57 7.2 34.94 0 31.73L0 32.4C6.33 35.18 11.41 36 15.18 36C15.71 36 16.2 35.97 16.65 35.95Z" fill="#848484" fill-opacity="1.000000" fill-rule="nonzero"/>
		<path id="Path" d="M26.19 22.47C29.34 21.05 31.49 18.64 32.57 15.3C34.18 10.43 34.53 5.52 34.27 1L33.61 1C33.87 5.46 33.52 10.31 31.93 15.11C30.9 18.28 28.85 20.57 25.88 21.9C18.82 25.07 7.83 22.47 0 19.87L0 20.55C5.25 22.28 11.9 24 17.89 24C20.91 24 23.77 23.55 26.19 22.47Z" fill="#848484" fill-opacity="1.000000" fill-rule="nonzero"/>
		<path id="Path" d="M157.83 16.07C153.6 24.05 134.89 22.97 134.68 22.95C124.21 22.95 114.48 22.23 105.91 21.58C93.15 20.62 82.12 19.8 73.97 21.82C69.66 22.89 66.31 24.7 63.75 27.36C60.98 30.22 59.1 34.08 57.99 39.12C54.3 55.99 44.64 58.01 36.85 59.62C32.16 60.6 28.1 61.44 26.76 65.44C25.55 69.1 26.95 76.37 30.39 83.96C34.06 92.11 39.05 98.42 43.74 100.83C45.26 101.61 46.77 102 48.2 102C50.93 102 53.51 100.61 55.77 97.89C59.21 93.77 62 89.27 64.71 84.92C69.77 76.8 74.12 69.79 80.88 68.22C85.04 67.26 89.88 68.44 95.64 71.9C103.28 76.45 108.57 77.88 111.84 76.27C115.89 74.26 116.29 68.08 116.72 61.5C117.3 52.68 117.89 43.55 127.36 43.96C129.54 44.04 131.63 44.1 133.66 44.1C154.14 44.1 167.43 39.47 173.17 30.28C177.69 23.07 176.54 14.37 174.79 8.37C173.95 5.49 172.91 2.96 171.99 1L171.29 1C172.23 2.96 173.32 5.59 174.17 8.55C177.26 19.23 175.02 26.09 172.61 29.97C166.43 39.86 151.19 44.37 127.39 43.37C122.84 43.18 119.81 45.02 118.13 49C116.66 52.45 116.36 57.05 116.08 61.5C115.68 67.89 115.27 73.92 111.54 75.75C108.49 77.27 103.41 75.84 95.96 71.41C90.03 67.87 85.04 66.65 80.71 67.67C73.69 69.3 69.25 76.41 64.14 84.66C61.45 88.99 58.65 93.46 55.24 97.54C51.91 101.53 48.14 102.44 44 100.32C39.43 97.97 34.53 91.78 30.92 83.76C27.61 76.41 26.16 69.14 27.32 65.67C28.55 61.99 32.24 61.22 36.94 60.26C40.86 59.44 45.3 58.52 49.27 55.62C53.85 52.27 56.9 46.92 58.57 39.26C60.64 29.77 65.41 24.58 74.08 22.44C77.7 21.54 81.95 21.21 86.66 21.21C92.38 21.21 98.84 21.7 105.8 22.21C114.4 22.85 124.12 23.58 134.6 23.58C134.6 23.58 134.6 23.58 134.62 23.58C134.66 23.58 139.48 23.89 144.75 23.15C151.92 22.17 156.48 19.88 158.36 16.37C160.39 12.55 159.09 7.41 154.48 1.02L153.71 1.02C158.4 7.33 159.77 12.39 157.83 16.07Z" fill="#848484" fill-opacity="1.000000" fill-rule="nonzero"/>
		<path id="Path" d="M159.21 22.87C155.71 27.13 145.12 28.89 128.61 27.98C116.07 27.29 104.45 25.28 104.35 25.26C104.28 25.24 97.19 24.01 89.2 25.53C84.49 26.4 80.38 28.04 76.99 30.41C72.74 33.35 69.6 37.42 67.68 42.49C63.96 52.31 59.8 59.01 54.93 63C50.7 66.46 46.58 67.38 42.73 68.02C37.12 68.95 35.22 72.44 34.62 75.2C33.42 80.6 36.31 87.88 40.79 90.81C42.01 91.6 43.25 92 44.44 92C45.55 92 46.64 91.66 47.67 90.98C51.87 88.2 56.19 82.84 60.76 77.19C69.45 66.42 78.44 55.29 87.48 60.88C88.8 61.69 90.08 62.5 91.3 63.29C97.92 67.5 103.17 70.84 106.48 69.26C108.45 68.33 109.56 65.86 109.96 61.46C110.8 52.37 112.33 45.52 117.14 41.66C120.56 38.9 125.43 37.88 132.05 38.5C150.58 40.27 162.8 37.07 168.37 29.04C172.84 22.6 172.07 14.24 170.64 8.34C169.83 5 168.71 2.05 167.84 0L167.16 0C168.03 2.03 169.18 5.04 170.02 8.49C171.41 14.26 172.15 22.43 167.84 28.68C162.41 36.51 150.39 39.6 132.11 37.88C125.32 37.24 120.3 38.31 116.73 41.18C111.78 45.19 110.18 52.16 109.32 61.42C108.94 65.53 107.93 67.92 106.2 68.73C103.21 70.14 98.11 66.9 91.66 62.79C90.42 62 89.14 61.19 87.82 60.38C83.52 57.72 78.89 58.39 73.66 62.41C69.09 65.9 64.6 71.47 60.27 76.84C55.74 82.47 51.45 87.76 47.33 90.5C44.91 92.1 42.65 91.29 41.15 90.31C36.86 87.51 34.11 80.52 35.24 75.35C35.81 72.77 37.59 69.51 42.84 68.64C46.77 67.98 50.98 67.04 55.33 63.47C60.29 59.4 64.52 52.62 68.28 42.69C70.16 37.73 73.21 33.77 77.33 30.9C80.64 28.6 84.68 27 89.29 26.13C92.28 25.57 95.14 25.38 97.56 25.38C101.49 25.38 104.18 25.86 104.22 25.86C104.33 25.88 115.99 27.89 128.56 28.58C145.52 29.51 156.01 27.73 159.7 23.24C163.35 18.84 164.21 12.89 162.16 6.04C161.45 3.69 160.53 1.61 159.72 0.02L159 0.02C159.83 1.59 160.81 3.75 161.54 6.2C162.93 10.83 163.63 17.49 159.21 22.87Z" fill="#848484" fill-opacity="1.000000" fill-rule="nonzero"/>
		<path id="Shape" d="M97.5605 31.384C95.209 30.7072 92.6641 30.9328 90.377 31.9993C87.8105 33.2094 80.3926 37.8446 80.1582 43.2796C80.0293 46.3971 82.2109 49.248 86.6348 51.7912C89.2871 53.3089 91.4883 55.4624 93.4336 57.3698C95.4863 59.3797 97.1328 61 98.5645 61C98.6934 61 98.8223 60.9795 98.9492 60.959C99.8262 60.7744 100.49 59.954 101.023 58.3953C103.076 52.4885 106.027 41.6389 102.691 35.4654C101.602 33.4145 99.8691 32.0403 97.5605 31.384ZM98.8223 60.3642C99.4414 60.2206 99.9766 59.5233 100.426 58.2107C105.15 44.6333 103.525 38.3163 102.113 35.7731C101.088 33.8862 99.4844 32.6146 97.3672 31.9993Q96.8691 31.8519 96.3594 31.7633Q95.5918 31.6301 94.8027 31.6301C93.3906 31.6301 91.9805 31.9378 90.6543 32.5531C88.1758 33.7221 81.0137 38.1727 80.7988 43.3001C80.6699 46.1715 82.7656 48.8583 86.9785 51.2579C89.6934 52.7961 92.0234 55.0932 93.9043 56.9391L93.9297 56.9629C95.9277 58.9217 97.6504 60.6093 98.8223 60.3642Z" clip-rule="evenodd" fill="#848484" fill-opacity="1.000000" fill-rule="evenodd"/>
		<path id="Shape" d="M94.2461 41.1309C93.5684 40.8969 92.834 40.982 92.1758 41.3436C92.1562 41.3648 89.3887 42.9388 89.3145 45.1083C89.2773 46.1931 89.8984 47.1714 91.1582 48.0222C91.8555 48.4902 92.4395 49.1708 92.9473 49.7664C93.5488 50.4683 94 51 94.4707 51C94.5273 51 94.5645 51 94.6211 50.9787C95.0352 50.8724 95.2246 50.3832 95.3184 50.0216C95.8828 48.1073 96.6914 44.5978 95.752 42.5559C95.4121 41.8328 94.9043 41.3648 94.2461 41.1309ZM94.4902 50.3406C94.5469 50.3406 94.6602 50.1705 94.7734 49.8089C95.2051 48.3413 96.1094 44.7254 95.2617 42.8324C94.998 42.2794 94.6211 41.9178 94.0957 41.7477C93.8887 41.6839 93.6621 41.6413 93.4551 41.6413C93.0977 41.6413 92.7578 41.7264 92.4199 41.9178C91.9121 42.2156 89.9355 43.5981 89.8789 45.1508C89.8418 45.9591 90.3672 46.7461 91.4414 47.4692C92.1934 47.9797 92.834 48.7241 93.3418 49.3197C93.3672 49.3486 93.3926 49.378 93.4199 49.4078C93.8203 49.8612 94.2949 50.4005 94.4902 50.3406Z" clip-rule="evenodd" fill="#848484" fill-opacity="1.000000" fill-rule="evenodd"/>
		<path id="Path" d="M262.18 37.18C254.04 39.88 248.39 47.77 245.42 60.62C244.05 66.55 240.64 70.29 235.29 71.73C225.27 74.46 209.23 68.2 198.03 57.16C189.05 48.34 185.45 38.64 188.14 30.57C190.63 23.09 191.34 14.96 190.25 6.44C190.02 4.65 189.69 2.82 189.31 1L188.65 1C189.05 2.87 189.37 4.69 189.61 6.52C190.7 14.96 189.99 23.01 187.54 30.41C184.77 38.7 188.44 48.6 197.59 57.61C202.92 62.85 209.61 67.26 216.46 70.03C221.32 72 226.02 73 230.15 73C232.07 73 233.86 72.77 235.48 72.34C240.98 70.86 244.65 66.86 246.06 60.76C248.98 48.13 254.46 40.41 262.4 37.77C273.7 34.01 288.18 41.08 300 49.27L300 48.52C288.09 40.33 273.61 33.4 262.18 37.18Z" fill="#848484" fill-opacity="1.000000" fill-rule="nonzero"/>
		<path id="Path" d="M265.76 21.18C258.83 22.51 253.54 26.91 250.09 34.21C245.3 44.31 239.22 51.39 232 55.27C224.27 59.42 217.4 58.73 213 57.42C207.67 55.83 203.08 52.47 200.05 47.97C196.91 43.33 195.75 37.85 196.8 32.55C198.98 21.55 199.79 10.93 199.28 1L198.63 1C199.15 10.89 198.33 21.47 196.18 32.43C195.11 37.89 196.29 43.51 199.51 48.28C202.62 52.9 207.35 56.34 212.83 57.97C215.12 58.67 217.49 59 219.85 59C224.08 59 228.35 57.91 232.33 55.78C239.67 51.84 245.84 44.66 250.69 34.43C254.06 27.32 259.17 23.06 265.89 21.75C271.35 20.71 277.9 21.65 284.83 24.51C290.26 26.74 295.76 30.1 300 33.76L300 32.94C291.25 25.62 277.17 18.99 265.76 21.18Z" fill="#848484" fill-opacity="1.000000" fill-rule="nonzero"/>
		<path id="Path" d="M160.06 281.7C159.52 281.15 158.83 280.93 158.03 281.01C155.33 281.32 151.64 285.4 148.85 289L149.67 289C152.33 285.6 155.72 281.96 158.09 281.68C158.7 281.61 159.2 281.76 159.62 282.18C161.07 283.62 162.68 286.24 164.15 289L164.88 289C163.35 286.09 161.63 283.24 160.06 281.7Z" fill="#848484" fill-opacity="1.000000" fill-rule="nonzero"/>
		<path id="Path" d="M293.65 20.68C286.36 20.02 277.56 17.27 269.49 13.12C260.13 8.29 252.31 15.49 243.28 23.8C236.4 30.14 228.6 37.32 218.94 39.91C215.55 40.83 212.92 40.35 211.1 38.54C204.93 32.33 209.08 11.97 211.89 1L211.23 1C210.38 4.34 209.4 8.52 208.63 12.89C206.26 26.46 206.94 35.24 210.66 38.98C212 40.33 213.73 41 215.83 41C216.85 41 217.94 40.83 219.14 40.52C228.92 37.9 236.8 30.66 243.73 24.26C252.59 16.11 260.24 9.06 269.19 13.68C277.44 17.94 286.11 20.64 293.59 21.31C295.91 21.51 298.05 21.51 300 21.31L300 20.68C298.09 20.89 295.96 20.89 293.65 20.68Z" fill="#848484" fill-opacity="1.000000" fill-rule="nonzero"/>
		<path id="Path" d="M220.95 27.93C221.3 27.97 221.62 28 221.97 28C227.71 28 234.12 22.03 237.55 18.31C242.1 13.4 246.53 7.02 249.62 1L248.9 1C245.86 6.88 241.52 13.09 237.08 17.9C230.94 24.52 225.25 27.87 221.04 27.32C219.29 27.1 218.15 26.34 217.54 25.05C215.28 20.15 221.41 8.74 226.22 1.02L225.46 1.02C224.52 2.57 223.5 4.24 222.53 5.98C217.24 15.4 215.36 21.9 216.96 25.3C217.65 26.79 218.99 27.67 220.95 27.93Z" fill="#848484" fill-opacity="1.000000" fill-rule="nonzero"/>
		<path id="Path" d="M228.67 14.97C228.8 15 228.96 15 229.12 15C230.45 15 232.56 14.23 235.49 11.03C237.67 8.67 239.76 5.47 240.98 2.67C241.18 2.2 241.4 1.63 241.6 1.02L240.91 1.02C240.76 1.46 240.58 1.93 240.38 2.42C237.87 8.19 232.14 14.78 228.78 14.32C228.16 14.23 227.76 13.98 227.54 13.51C226.41 11.05 231 3.77 232.98 1L232.18 1C230.76 3.05 225.58 10.8 226.94 13.76C227.23 14.46 227.83 14.87 228.67 14.97Z" fill="#848484" fill-opacity="1.000000" fill-rule="nonzero"/>
		<path id="Path" d="M289.46 14.2C285.28 13.68 280.6 11.92 275.53 8.98C271.1 6.41 267.13 3.36 264.32 1L263.35 1C266.23 3.44 270.45 6.76 275.21 9.52C280.37 12.51 285.14 14.31 289.4 14.83C290.28 14.93 291.14 15 292 15C294.96 15 297.62 14.33 300 12.99L300 12.26C296.95 14.03 293.45 14.7 289.46 14.2Z" fill="#848484" fill-opacity="1.000000" fill-rule="nonzero"/>
		<path id="Shape" d="M183.033 184.624C173.113 182.401 166.008 182.464 161.908 184.79C156.391 187.927 151.346 193.079 152.439 196.299C153.041 198.086 155.338 199 159.268 199C160.297 199 161.436 198.938 162.701 198.813L164.441 198.647C171.439 197.961 181.035 197.006 189.086 195.842C202.055 193.973 203.77 192.581 203.812 191.563C203.855 190.815 203.062 189.797 196.688 188.654C196.191 188.467 190.141 186.224 183.033 184.624ZM188.98 195.24C201.711 193.391 203.129 192.041 203.148 191.542C203.148 191.293 202.699 190.379 196.535 189.278L196.473 189.257C196.406 189.236 190.203 186.888 182.904 185.247C179.146 184.396 174.66 183.648 170.58 183.648C167.383 183.648 164.42 184.125 162.25 185.351C159.525 186.909 156.969 188.924 155.23 190.898C153.406 192.996 152.633 194.845 153.062 196.133C153.729 198.044 157.033 198.771 162.637 198.211L164.377 198.044C171.375 197.338 180.949 196.403 188.98 195.24Z" clip-rule="evenodd" fill="#848484" fill-opacity="1.000000" fill-rule="evenodd"/>
		<path id="Shape" d="M174.371 48.7894C169.432 50.8774 167.008 52.7117 167.186 54.2728C167.297 55.4046 168.697 56.2828 171.479 56.9267C174.551 57.6487 177.486 58 180.002 58C183.762 58 186.586 57.2195 187.477 55.7364C188.633 53.824 186.32 51.5214 184.184 49.9017C181.492 47.8528 177.621 47.4235 174.371 48.7894ZM171.658 56.3608C178.756 58.039 185.586 57.6292 186.898 55.4632C187.633 54.2143 186.566 52.4581 183.762 50.3506C182.205 49.1992 180.268 48.5943 178.311 48.5943C177.064 48.5943 175.818 48.8285 174.662 49.3163C170.145 51.2287 167.719 52.9654 167.852 54.2143C167.941 55.0534 169.254 55.7949 171.658 56.3608Z" clip-rule="evenodd" fill="#848484" fill-opacity="1.000000" fill-rule="evenodd"/>
		<path id="Path" d="M235.07 281.66C223.84 280.31 217.24 271.28 208.92 259.83C206.6 256.64 204.18 253.33 201.46 249.9C194.66 241.29 187.03 236.12 178.81 234.53C169.48 232.73 159.22 235.51 148.34 242.78C136.38 250.78 119.07 263.63 104.22 275.57C100.06 278.92 94.63 283.38 89.31 288L90.26 288C94.48 284.36 99.29 280.35 104.63 276.04C119.46 264.12 136.74 251.27 148.68 243.29C168.96 229.74 186.55 232.09 200.93 250.28C203.62 253.7 206.03 257.01 208.36 260.2C216.79 271.77 223.45 280.88 234.96 282.27C243.12 283.25 247.8 285.17 248.93 288L249.61 288C248.56 284.83 243.66 282.7 235.07 281.66Z" fill="#848484" fill-opacity="1.000000" fill-rule="nonzero"/>
		<path id="Path" d="M173.39 258.16C169.4 256.42 165.31 256.63 161.22 258.77C151.08 264.05 141.88 270.29 133.88 277.35C128.97 281.68 125.26 285.66 122.52 289L123.36 289C129.6 281.52 141.67 269.64 161.5 259.31C165.42 257.28 169.32 257.07 173.12 258.73C180.77 262.06 186.77 272.32 190.43 280.37C191.85 283.42 193.03 286.42 193.98 289L194.65 289C193.68 286.36 192.48 283.28 191.02 280.11C185.62 268.28 179.68 260.88 173.39 258.16Z" fill="#848484" fill-opacity="1.000000" fill-rule="nonzero"/>
		<path id="Shape" d="M74.1504 211.027C71.9199 212.224 71.7832 214.369 72.5801 215.855C73.2168 217.01 74.5371 218 76.2207 218C76.7441 218 77.3125 217.897 77.8809 217.691C81.748 216.267 84.0234 214.823 84.6152 213.42C84.9121 212.76 84.6387 212.059 83.8652 211.46C82.0684 210.058 77.4941 209.232 74.1504 211.027ZM77.6074 217.113C81.248 215.772 83.4551 214.41 83.9785 213.193C84.2051 212.678 83.7969 212.203 83.3867 211.935C82.4316 211.192 80.543 210.635 78.541 210.635C77.1523 210.635 75.7207 210.903 74.4688 211.564C72.6035 212.554 72.4668 214.287 73.1719 215.566C73.877 216.845 75.5605 217.876 77.6074 217.113Z" clip-rule="evenodd" fill="#848484" fill-opacity="1.000000" fill-rule="evenodd"/>
		<path id="Shape" d="M94.5449 274.657C97.5684 273.512 106.703 269.177 107.545 267.189C107.74 266.748 107.609 266.326 107.178 266.005C105.105 264.359 94.7188 264.74 90.3984 267.109C87.9375 268.454 87.7656 270.883 88.6719 272.569C89.3848 273.894 90.832 274.998 92.6875 274.998C93.2715 275.018 93.8984 274.897 94.5449 274.657ZM90.7227 267.631C88.6074 268.795 88.4551 270.823 89.2539 272.308C90.0547 273.793 91.9531 274.998 94.2871 274.095C98.1094 272.629 106.25 268.534 106.92 266.969C106.984 266.828 107.006 266.667 106.746 266.467C104.889 265.001 94.6758 265.463 90.7227 267.631Z" clip-rule="evenodd" fill="#848484" fill-opacity="1.000000" fill-rule="evenodd"/>
		<path id="Path" d="M18.18 14.33C21.8 12.18 20.62 5.33 19.41 1L18.72 1C19.03 2.08 19.32 3.34 19.57 4.66C20.15 8.02 20.33 12.35 17.82 13.87C14.87 15.62 8.89 13.33 0 7.05L0 7.79C6.85 12.59 12.06 15 15.55 15C16.57 15 17.44 14.76 18.18 14.33Z" fill="#848484" fill-opacity="1.000000" fill-rule="nonzero"/>
		<path id="Shape" d="M136.123 149.873C138.5 150.709 141.83 151 144.951 151C146.352 151 147.709 150.942 148.92 150.845C152.803 150.534 157.217 149.679 157.918 148.222C158.15 147.717 158.088 146.94 156.305 146.124C156.262 146.105 152.803 144.609 148.623 143.424C142.955 141.831 138.711 141.578 136.016 142.647C134.51 143.249 133.512 144.259 133.023 145.638C132.535 146.921 132.727 148.708 136.123 149.873ZM136.25 143.191C134.912 143.715 134.021 144.609 133.596 145.833C133.066 147.328 133.979 148.513 136.355 149.349C139.156 150.32 143.953 150.67 148.855 150.281C153.377 149.912 156.857 148.98 157.324 148.008C157.557 147.503 156.729 146.998 156.008 146.668C155.795 146.571 146.584 142.608 139.963 142.608C138.584 142.608 137.311 142.763 136.25 143.191Z" clip-rule="evenodd" fill="#848484" fill-opacity="1.000000" fill-rule="evenodd"/>
	</g>
</svg>
